<svg xmlns="http://www.w3.org/2000/svg" viewBox="0 0 50 19" fill="none">
    <path d="M8.16178 3.60571C6.80977 3.60571 5.77163 4.11595 5.0232 5.13642C4.27477 6.1569 3.91261 7.59042 3.91261 9.41269C3.91261 13.203 5.33706 15.1225 8.16178 15.1225C9.34478 15.1225 10.7933 14.8309 12.4834 14.2235V17.2606C11.0831 17.8437 9.53792 18.1353 7.82377 18.1353C5.36119 18.1353 3.47804 17.3821 2.17432 15.8757C0.870603 14.3693 0.21875 12.2068 0.21875 9.41269C0.21875 7.63901 0.532608 6.084 1.18447 4.74767C1.83633 3.41134 2.75376 2.39087 3.93677 1.68625C5.14391 0.981642 6.5442 0.617188 8.16178 0.617188C9.8035 0.617188 11.4694 1.00594 13.1111 1.80774L11.9522 4.74767C11.3245 4.45611 10.6726 4.18884 10.0449 3.94587C9.41721 3.7029 8.78949 3.60571 8.16178 3.60571Z" fill="#0C193A"/>
    <path d="M19.6774 11.3322V17.868H16.0801V0.835876H21.0052C23.2988 0.835876 25.013 1.24893 26.1235 2.09932C27.2341 2.94971 27.7894 4.21315 27.7894 5.93824C27.7894 6.93441 27.5238 7.8334 26.9685 8.6109C26.4132 9.38841 25.6407 9.99583 24.6508 10.4575C27.21 14.2964 28.8517 16.7504 29.6243 17.8923H25.6407L21.6088 11.3565H19.6774V11.3322ZM19.6774 8.39223H20.8362C21.971 8.39223 22.8159 8.19786 23.3471 7.8334C23.8782 7.44465 24.168 6.86152 24.168 6.03543C24.168 5.23363 23.9024 4.6505 23.3471 4.31034C22.7918 3.97018 21.9468 3.80011 20.7879 3.80011H19.7015V8.39223H19.6774Z" fill="#0C193A"/>
    <path d="M38.9205 17.8681L34.8403 4.50478H34.7437C34.8886 7.22604 34.961 9.04831 34.961 9.9473V17.8681H31.75V0.835938H36.6269L40.6346 13.8591H40.707L44.9562 0.835938H49.8331V17.8681H46.4772V9.80152C46.4772 9.41276 46.4772 8.97542 46.5013 8.48948C46.5013 8.00354 46.5738 6.66721 46.6462 4.52908H46.5738L42.2039 17.8681H38.9205Z" fill="#0C193A"/>
</svg>