<svg width="227" height="50" viewBox="0 0 227 50" fill="none" xmlns="http://www.w3.org/2000/svg">
<g clip-path="url(#clip0_7540_62924)">
<path d="M16.9801 0C7.0872 0 0 7.81908 0 17.269V17.3778C0 26.9727 7.14186 34.5653 16.8435 34.5653C22.9469 34.5653 26.7911 32.2186 30.28 28.6851L27.784 26.2569C24.5684 29.3193 21.544 31.068 16.9346 31.068C9.54677 31.068 3.93531 24.9975 3.93531 17.269V17.1603C3.93531 9.47713 9.51033 3.47012 16.9346 3.47012C21.4985 3.47012 24.6595 5.38185 27.4834 8.06371L30.0705 5.30031C26.7455 2.12918 23.0926 0 16.9892 0" fill="#151C2D"/>
<path d="M67.1808 8.85281C62.289 8.85281 58.7181 11.6706 58.7181 15.9289V16.0377C58.7181 20.5769 63.036 21.9178 66.9075 23.0051C70.1778 23.9111 73.0929 24.8625 73.0929 27.3541V27.4628C73.0929 29.8366 70.9521 31.3678 67.9551 31.3678C64.9581 31.3678 62.043 30.2171 59.3557 28.2238L57.4883 30.8513C60.2667 33.0893 64.1929 34.4846 67.7638 34.4846C72.7103 34.4846 76.5818 31.7755 76.5818 27.0822V26.9735C76.5818 22.5158 72.4643 21.0662 68.611 19.9246C65.286 18.9098 62.2343 18.0128 62.2343 15.6843V15.5756C62.2343 13.528 64.1018 11.9968 67.0442 11.9968C69.4309 11.9968 72.0726 12.9028 74.3773 14.3706L76.0535 11.6072C73.5575 9.91287 70.1961 8.84375 67.1808 8.84375" fill="#151C2D"/>
<path d="M108.295 8.77078C103.977 8.77078 101.345 10.9543 99.5594 13.6906C98.2112 10.9271 95.6332 8.77078 91.5885 8.77078C87.5439 8.77078 85.2119 11.0087 83.5631 13.4459V9.28722H79.8828V33.9676H83.5631V19.8969C83.5631 15.3577 86.5328 12.105 90.459 12.105C94.3852 12.105 96.8356 14.814 96.8356 19.4529V33.9676H100.489V19.7247C100.489 14.8593 103.622 12.0959 107.357 12.0959C111.393 12.0959 113.788 14.7778 113.788 19.5254V33.9314H117.469V18.6556C117.496 12.5852 114.007 8.76172 108.295 8.76172" fill="#151C2D"/>
<path d="M133.327 31.2392C128.108 31.2392 124.181 26.9446 124.181 21.6443V21.5356C124.181 16.344 127.862 11.995 133.245 11.995C138.629 11.995 142.455 16.344 142.455 21.6443V21.753C142.455 26.9446 138.72 31.2392 133.337 31.2392M133.327 8.76953C125.858 8.76953 120.383 14.6769 120.383 21.6443V21.753C120.383 28.7204 125.794 34.5462 133.245 34.5462C140.697 34.5462 146.245 28.6389 146.245 21.6715V21.5628C146.245 14.5953 140.779 8.76953 133.327 8.76953Z" fill="#151C2D"/>
<path d="M156.6 0.570312H149.203V33.9668H173.362V27.2984H156.6V0.570312Z" fill="#151C2D"/>
<path d="M179.983 19.1898C180.557 15.8827 182.543 13.7535 185.558 13.7535C188.573 13.7535 190.559 15.9371 190.969 19.1898H179.974M185.531 7.92773C178.061 7.92773 172.805 13.9438 172.805 21.2374V21.3461C172.805 29.1652 178.516 34.5742 186.241 34.5742C190.887 34.5742 194.349 32.7712 196.735 29.7904L192.591 26.1028C190.586 27.9602 188.801 28.7303 186.351 28.7303C183.08 28.7303 180.776 27.0088 180.056 23.729H197.947C198.002 23.0495 198.056 22.3881 198.056 21.8173C198.056 14.5509 194.13 7.93679 185.522 7.93679" fill="#151C2D"/>
<path d="M221.724 8.39062H214.081L209.244 15.8292L204.434 8.39062H196.609L205.291 20.9936L196.281 33.968H203.915L209.08 25.9949L214.273 33.968H222.079L213.015 20.8577L221.724 8.39062Z" fill="#151C2D"/>
<path d="M222.383 6.17828C222.383 5.77057 222.492 5.39003 222.683 5.02762C222.875 4.6652 223.175 4.40245 223.54 4.17594C223.904 3.94944 224.278 3.87695 224.697 3.87695C225.116 3.87695 225.489 3.98568 225.854 4.17594C226.209 4.36621 226.482 4.6652 226.71 5.02762C226.901 5.38097 227.01 5.76151 227.01 6.17828C227.01 6.59506 226.901 6.93935 226.71 7.30177C226.519 7.65512 226.245 7.92693 225.89 8.15344C225.535 8.37089 225.152 8.47961 224.706 8.47961C224.296 8.47961 223.886 8.37089 223.522 8.15344C223.166 7.93599 222.893 7.66418 222.702 7.30177C222.483 6.94841 222.401 6.56788 222.401 6.17828H222.383ZM222.656 6.17828C222.656 6.53164 222.738 6.85781 222.929 7.19304C223.121 7.49203 223.339 7.73666 223.667 7.92693C223.968 8.1172 224.323 8.19874 224.688 8.19874C225.052 8.19874 225.371 8.1172 225.708 7.92693C226.008 7.73666 226.254 7.51922 226.446 7.19304C226.637 6.86687 226.719 6.5407 226.719 6.17828C226.719 5.81587 226.637 5.49876 226.446 5.1907C226.282 4.89171 226.036 4.64708 225.708 4.45682C225.407 4.26655 225.052 4.185 224.688 4.185C224.323 4.185 224.004 4.26655 223.695 4.45682C223.385 4.64708 223.148 4.86453 222.957 5.1907C222.765 5.4897 222.656 5.81587 222.656 6.17828ZM225.489 5.59842C225.489 5.76151 225.435 5.89741 225.38 6.00614C225.298 6.14204 225.189 6.22358 225.052 6.30513L225.762 7.51015H225.407L224.779 6.41385H224.259V7.51015H223.959V4.82829H224.615C224.915 4.82829 225.134 4.88265 225.298 5.01856C225.407 5.12728 225.489 5.31755 225.489 5.58936V5.59842ZM224.223 6.17828H224.551C224.742 6.17828 224.879 6.12392 224.988 6.04238C225.097 5.93365 225.152 5.82493 225.152 5.63466C225.152 5.28131 224.961 5.11822 224.551 5.11822H224.223V6.18734V6.17828Z" fill="#151C2D"/>
<mask id="path-9-outside-1_7540_62924" maskUnits="userSpaceOnUse" x="26.0078" y="2.86719" width="34" height="34" fill="black">
<rect fill="white" x="26.0078" y="2.86719" width="34" height="34"/>
<path d="M59.2906 20.198C59.2906 18.3289 57.4171 16.6704 54.3727 15.4945C55.6998 12.4845 55.8733 9.9748 54.5636 8.64973C53.2539 7.32466 50.7732 7.50016 47.7982 8.84279C46.636 5.76265 44.9967 3.86719 43.1492 3.86719C41.3018 3.86719 39.6625 5.76265 38.5002 8.84279C35.5252 7.50016 33.0446 7.32466 31.7349 8.64973C30.4252 9.9748 30.5986 12.4845 31.9257 15.4945C28.8813 16.6704 27.0078 18.3289 27.0078 20.198C27.0078 22.0672 28.8813 23.7257 31.9257 24.9016C30.5986 27.9115 30.4252 30.4213 31.7349 31.7463C32.3507 32.3694 33.218 32.659 34.2675 32.659C35.4645 32.659 36.913 32.2641 38.5002 31.5533C39.6625 34.6334 41.3018 36.5377 43.1492 36.5377C44.9967 36.5377 46.636 34.6334 47.7982 31.5533C49.3768 32.2641 50.8253 32.659 52.0222 32.659C53.0804 32.659 53.9477 32.3694 54.5549 31.7463C55.8646 30.4213 55.6911 27.9115 54.3641 24.9016C57.4085 23.7257 59.282 22.0672 59.282 20.198H59.2906ZM52.0396 8.47422C52.8896 8.47422 53.5748 8.70238 54.0431 9.17625C55.1273 10.2732 54.8932 12.5196 53.6702 15.24C52.3345 14.7837 50.7993 14.4151 49.1253 14.1518C48.8651 12.4582 48.5008 10.9138 48.0498 9.56236C49.5676 8.86911 50.938 8.47422 52.0309 8.47422H52.0396ZM48.839 20.198C48.839 20.9966 48.8043 21.7776 48.761 22.5498C48.2579 23.129 47.7288 23.6994 47.1737 24.2698C46.6186 24.8314 46.0462 25.3667 45.4737 25.8844C44.7105 25.9283 43.9385 25.9634 43.1492 25.9634C42.3599 25.9634 41.588 25.9283 40.8247 25.8844C40.2523 25.3667 39.6885 24.8402 39.1247 24.2698C38.5696 23.7082 38.0405 23.129 37.5375 22.5498C37.4941 21.7776 37.4594 20.9966 37.4594 20.198C37.4594 19.3995 37.4941 18.6185 37.5375 17.8463C38.0405 17.2671 38.5696 16.6967 39.1247 16.1263C39.6798 15.5647 40.2436 15.0294 40.816 14.5116C41.5793 14.4678 42.3599 14.4327 43.1492 14.4327C43.9385 14.4327 44.7105 14.4678 45.4737 14.5116C46.0462 15.0294 46.6099 15.5559 47.1737 16.1263C47.7288 16.6879 48.2579 17.2671 48.761 17.8463C48.8043 18.6185 48.839 19.3995 48.839 20.198ZM47.6855 15.6085C47.3472 15.2663 47.0003 14.9328 46.662 14.6082C47.2778 14.6608 47.8763 14.731 48.4661 14.8188C48.5528 15.4155 48.6222 16.021 48.6742 16.644C48.3533 16.293 48.0237 15.9508 47.6855 15.6085ZM45.7686 13.7921C45.1008 13.1953 44.4416 12.6425 43.7824 12.1248C45.014 11.2297 46.2283 10.475 47.3732 9.89582C47.7722 11.1244 48.1105 12.5196 48.3533 14.0378C47.5207 13.9237 46.662 13.8447 45.7686 13.7921ZM44.5717 13.7306C44.1033 13.7131 43.6263 13.7043 43.1492 13.7043C42.6722 13.7043 42.2038 13.7131 41.7441 13.7306C42.2125 13.3357 42.6809 12.9496 43.1579 12.5898C43.6263 12.9496 44.1033 13.327 44.5717 13.7306ZM40.5211 13.7921C39.6278 13.8447 38.7691 13.9325 37.9364 14.0378C38.1793 12.5109 38.5176 11.1156 38.9252 9.88705C40.0701 10.475 41.2844 11.2209 42.5247 12.116C41.8569 12.6337 41.189 13.1953 40.5211 13.7921ZM39.6364 14.6082C39.2895 14.9328 38.9512 15.2663 38.613 15.6085C38.2747 15.9508 37.9451 16.3018 37.6242 16.644C37.6762 16.021 37.7456 15.4155 37.8324 14.8188C38.4222 14.731 39.0206 14.6608 39.6364 14.6082ZM36.8176 17.5479C36.2278 18.2236 35.6727 18.8993 35.1609 19.575C34.2762 18.3201 33.539 17.0916 32.9578 15.9332C34.1808 15.5296 35.5599 15.1873 37.0604 14.9328C36.9477 15.7753 36.8696 16.644 36.8176 17.5479ZM36.7568 18.7589C36.7395 19.2328 36.7308 19.7154 36.7308 20.198C36.7308 20.6807 36.7395 21.1633 36.7568 21.6372C36.3579 21.1545 35.9849 20.6719 35.6293 20.198C35.9849 19.7154 36.3579 19.2415 36.7568 18.7589ZM36.8176 22.857C36.8696 23.7608 36.9563 24.6296 37.0604 25.472C35.5512 25.2263 34.1721 24.884 32.9578 24.4716C33.5303 23.3133 34.2675 22.0847 35.1609 20.8299C35.6727 21.5056 36.2278 22.1813 36.8176 22.857ZM37.6155 23.7608C37.9364 24.1118 38.266 24.4541 38.6043 24.7963C38.9426 25.1385 39.3069 25.4632 39.6538 25.7967C39.0293 25.744 38.4222 25.6651 37.8237 25.5861C37.7369 24.9894 37.6676 24.3839 37.6155 23.7608ZM40.5125 26.604C41.1803 27.2007 41.8569 27.7536 42.5247 28.2713C41.2844 29.1752 40.0701 29.9211 38.9252 30.5002C38.5262 29.2717 38.188 27.8764 37.9364 26.3495C38.7691 26.4636 39.6278 26.5426 40.5125 26.5952V26.604ZM41.7268 26.6742C42.1951 26.6918 42.6722 26.7005 43.1492 26.7005C43.6263 26.7005 44.1033 26.6918 44.5717 26.6742C44.0946 27.0779 43.6263 27.4552 43.1492 27.815C42.6722 27.4552 42.2038 27.0779 41.7268 26.6742ZM45.7773 26.604C46.662 26.5514 47.5207 26.4636 48.3533 26.3583C48.1105 27.8764 47.7722 29.2717 47.3645 30.509C46.2196 29.9211 45.0053 29.1752 43.765 28.2801C44.4329 27.7623 45.1008 27.2095 45.7773 26.6128V26.604ZM46.636 25.7967C46.9829 25.4632 47.3385 25.1473 47.6855 24.7963C48.0237 24.4541 48.3533 24.103 48.6742 23.7608C48.6222 24.3839 48.5528 24.9894 48.4661 25.5861C47.8676 25.6738 47.2605 25.744 46.636 25.7967ZM49.4809 22.857C50.0707 22.1813 50.6258 21.5056 51.1375 20.8299C52.0309 22.0847 52.7681 23.3133 53.3406 24.4716C52.1176 24.884 50.7385 25.2175 49.238 25.472C49.3508 24.6296 49.4288 23.7608 49.4809 22.857ZM49.5416 21.6372C49.5589 21.1633 49.5676 20.6807 49.5676 20.198C49.5676 19.7154 49.5589 19.2328 49.5416 18.7589C49.9406 19.2415 50.3135 19.7242 50.6692 20.198C50.3135 20.6807 49.9319 21.1545 49.5416 21.6372ZM49.4809 17.5479C49.4288 16.644 49.3421 15.7753 49.238 14.9328C50.7472 15.1786 52.1263 15.5208 53.3406 15.9332C52.7681 17.0916 52.0309 18.3201 51.1375 19.575C50.6258 18.8993 50.0707 18.2236 49.4809 17.5479ZM43.1492 4.60431C44.6758 4.60431 46.0895 6.35937 47.1217 9.1587C45.8554 9.79052 44.5196 10.6242 43.1492 11.6421C41.7788 10.6242 40.4431 9.79052 39.1768 9.1587C40.2089 6.35937 41.6227 4.60431 43.1492 4.60431ZM32.2466 9.17625C33.3308 8.07934 35.5512 8.31627 38.24 9.55359C37.789 10.905 37.4247 12.4582 37.1645 14.1518C35.4905 14.4151 33.9553 14.7837 32.6196 15.24C31.3966 12.5196 31.1624 10.2732 32.2466 9.17625ZM27.7364 20.198C27.7364 18.6536 29.4711 17.2232 32.2379 16.1789C32.8624 17.4601 33.6864 18.8115 34.6925 20.198C33.6864 21.5845 32.8624 22.9359 32.2379 24.2171C29.4711 23.1729 27.7364 21.7425 27.7364 20.198ZM32.2466 31.2286C31.1624 30.1317 31.3966 27.8852 32.6196 25.1649C33.9553 25.6212 35.4905 25.9897 37.1645 26.253C37.4247 27.9466 37.789 29.4999 38.24 30.8513C35.5512 32.0886 33.3308 32.3255 32.2466 31.2286ZM43.1492 35.7918C41.614 35.7918 40.2089 34.0279 39.1681 31.2198C40.4344 30.588 41.7788 29.7456 43.1492 28.7276C44.5196 29.7456 45.864 30.5792 47.1304 31.211C46.0982 34.0191 44.6844 35.783 43.1492 35.783V35.7918ZM54.0431 31.2286C52.959 32.3255 50.7385 32.0886 48.0498 30.8513C48.5008 29.4999 48.8651 27.9466 49.1253 26.253C50.7993 25.9897 52.3345 25.6212 53.6702 25.1649C54.8932 27.8852 55.1273 30.1317 54.0431 31.2286ZM54.0518 24.2171C53.4273 22.9359 52.6033 21.5845 51.5972 20.198C52.6033 18.8115 53.4273 17.4601 54.0518 16.1789C56.8187 17.2232 58.5534 18.6536 58.5534 20.198C58.5534 21.7425 56.8187 23.1729 54.0518 24.2171Z"/>
</mask>
<path d="M59.2906 20.198C59.2906 18.3289 57.4171 16.6704 54.3727 15.4945C55.6998 12.4845 55.8733 9.9748 54.5636 8.64973C53.2539 7.32466 50.7732 7.50016 47.7982 8.84279C46.636 5.76265 44.9967 3.86719 43.1492 3.86719C41.3018 3.86719 39.6625 5.76265 38.5002 8.84279C35.5252 7.50016 33.0446 7.32466 31.7349 8.64973C30.4252 9.9748 30.5986 12.4845 31.9257 15.4945C28.8813 16.6704 27.0078 18.3289 27.0078 20.198C27.0078 22.0672 28.8813 23.7257 31.9257 24.9016C30.5986 27.9115 30.4252 30.4213 31.7349 31.7463C32.3507 32.3694 33.218 32.659 34.2675 32.659C35.4645 32.659 36.913 32.2641 38.5002 31.5533C39.6625 34.6334 41.3018 36.5377 43.1492 36.5377C44.9967 36.5377 46.636 34.6334 47.7982 31.5533C49.3768 32.2641 50.8253 32.659 52.0222 32.659C53.0804 32.659 53.9477 32.3694 54.5549 31.7463C55.8646 30.4213 55.6911 27.9115 54.3641 24.9016C57.4085 23.7257 59.282 22.0672 59.282 20.198H59.2906ZM52.0396 8.47422C52.8896 8.47422 53.5748 8.70238 54.0431 9.17625C55.1273 10.2732 54.8932 12.5196 53.6702 15.24C52.3345 14.7837 50.7993 14.4151 49.1253 14.1518C48.8651 12.4582 48.5008 10.9138 48.0498 9.56236C49.5676 8.86911 50.938 8.47422 52.0309 8.47422H52.0396ZM48.839 20.198C48.839 20.9966 48.8043 21.7776 48.761 22.5498C48.2579 23.129 47.7288 23.6994 47.1737 24.2698C46.6186 24.8314 46.0462 25.3667 45.4737 25.8844C44.7105 25.9283 43.9385 25.9634 43.1492 25.9634C42.3599 25.9634 41.588 25.9283 40.8247 25.8844C40.2523 25.3667 39.6885 24.8402 39.1247 24.2698C38.5696 23.7082 38.0405 23.129 37.5375 22.5498C37.4941 21.7776 37.4594 20.9966 37.4594 20.198C37.4594 19.3995 37.4941 18.6185 37.5375 17.8463C38.0405 17.2671 38.5696 16.6967 39.1247 16.1263C39.6798 15.5647 40.2436 15.0294 40.816 14.5116C41.5793 14.4678 42.3599 14.4327 43.1492 14.4327C43.9385 14.4327 44.7105 14.4678 45.4737 14.5116C46.0462 15.0294 46.6099 15.5559 47.1737 16.1263C47.7288 16.6879 48.2579 17.2671 48.761 17.8463C48.8043 18.6185 48.839 19.3995 48.839 20.198ZM47.6855 15.6085C47.3472 15.2663 47.0003 14.9328 46.662 14.6082C47.2778 14.6608 47.8763 14.731 48.4661 14.8188C48.5528 15.4155 48.6222 16.021 48.6742 16.644C48.3533 16.293 48.0237 15.9508 47.6855 15.6085ZM45.7686 13.7921C45.1008 13.1953 44.4416 12.6425 43.7824 12.1248C45.014 11.2297 46.2283 10.475 47.3732 9.89582C47.7722 11.1244 48.1105 12.5196 48.3533 14.0378C47.5207 13.9237 46.662 13.8447 45.7686 13.7921ZM44.5717 13.7306C44.1033 13.7131 43.6263 13.7043 43.1492 13.7043C42.6722 13.7043 42.2038 13.7131 41.7441 13.7306C42.2125 13.3357 42.6809 12.9496 43.1579 12.5898C43.6263 12.9496 44.1033 13.327 44.5717 13.7306ZM40.5211 13.7921C39.6278 13.8447 38.7691 13.9325 37.9364 14.0378C38.1793 12.5109 38.5176 11.1156 38.9252 9.88705C40.0701 10.475 41.2844 11.2209 42.5247 12.116C41.8569 12.6337 41.189 13.1953 40.5211 13.7921ZM39.6364 14.6082C39.2895 14.9328 38.9512 15.2663 38.613 15.6085C38.2747 15.9508 37.9451 16.3018 37.6242 16.644C37.6762 16.021 37.7456 15.4155 37.8324 14.8188C38.4222 14.731 39.0206 14.6608 39.6364 14.6082ZM36.8176 17.5479C36.2278 18.2236 35.6727 18.8993 35.1609 19.575C34.2762 18.3201 33.539 17.0916 32.9578 15.9332C34.1808 15.5296 35.5599 15.1873 37.0604 14.9328C36.9477 15.7753 36.8696 16.644 36.8176 17.5479ZM36.7568 18.7589C36.7395 19.2328 36.7308 19.7154 36.7308 20.198C36.7308 20.6807 36.7395 21.1633 36.7568 21.6372C36.3579 21.1545 35.9849 20.6719 35.6293 20.198C35.9849 19.7154 36.3579 19.2415 36.7568 18.7589ZM36.8176 22.857C36.8696 23.7608 36.9563 24.6296 37.0604 25.472C35.5512 25.2263 34.1721 24.884 32.9578 24.4716C33.5303 23.3133 34.2675 22.0847 35.1609 20.8299C35.6727 21.5056 36.2278 22.1813 36.8176 22.857ZM37.6155 23.7608C37.9364 24.1118 38.266 24.4541 38.6043 24.7963C38.9426 25.1385 39.3069 25.4632 39.6538 25.7967C39.0293 25.744 38.4222 25.6651 37.8237 25.5861C37.7369 24.9894 37.6676 24.3839 37.6155 23.7608ZM40.5125 26.604C41.1803 27.2007 41.8569 27.7536 42.5247 28.2713C41.2844 29.1752 40.0701 29.9211 38.9252 30.5002C38.5262 29.2717 38.188 27.8764 37.9364 26.3495C38.7691 26.4636 39.6278 26.5426 40.5125 26.5952V26.604ZM41.7268 26.6742C42.1951 26.6918 42.6722 26.7005 43.1492 26.7005C43.6263 26.7005 44.1033 26.6918 44.5717 26.6742C44.0946 27.0779 43.6263 27.4552 43.1492 27.815C42.6722 27.4552 42.2038 27.0779 41.7268 26.6742ZM45.7773 26.604C46.662 26.5514 47.5207 26.4636 48.3533 26.3583C48.1105 27.8764 47.7722 29.2717 47.3645 30.509C46.2196 29.9211 45.0053 29.1752 43.765 28.2801C44.4329 27.7623 45.1008 27.2095 45.7773 26.6128V26.604ZM46.636 25.7967C46.9829 25.4632 47.3385 25.1473 47.6855 24.7963C48.0237 24.4541 48.3533 24.103 48.6742 23.7608C48.6222 24.3839 48.5528 24.9894 48.4661 25.5861C47.8676 25.6738 47.2605 25.744 46.636 25.7967ZM49.4809 22.857C50.0707 22.1813 50.6258 21.5056 51.1375 20.8299C52.0309 22.0847 52.7681 23.3133 53.3406 24.4716C52.1176 24.884 50.7385 25.2175 49.238 25.472C49.3508 24.6296 49.4288 23.7608 49.4809 22.857ZM49.5416 21.6372C49.5589 21.1633 49.5676 20.6807 49.5676 20.198C49.5676 19.7154 49.5589 19.2328 49.5416 18.7589C49.9406 19.2415 50.3135 19.7242 50.6692 20.198C50.3135 20.6807 49.9319 21.1545 49.5416 21.6372ZM49.4809 17.5479C49.4288 16.644 49.3421 15.7753 49.238 14.9328C50.7472 15.1786 52.1263 15.5208 53.3406 15.9332C52.7681 17.0916 52.0309 18.3201 51.1375 19.575C50.6258 18.8993 50.0707 18.2236 49.4809 17.5479ZM43.1492 4.60431C44.6758 4.60431 46.0895 6.35937 47.1217 9.1587C45.8554 9.79052 44.5196 10.6242 43.1492 11.6421C41.7788 10.6242 40.4431 9.79052 39.1768 9.1587C40.2089 6.35937 41.6227 4.60431 43.1492 4.60431ZM32.2466 9.17625C33.3308 8.07934 35.5512 8.31627 38.24 9.55359C37.789 10.905 37.4247 12.4582 37.1645 14.1518C35.4905 14.4151 33.9553 14.7837 32.6196 15.24C31.3966 12.5196 31.1624 10.2732 32.2466 9.17625ZM27.7364 20.198C27.7364 18.6536 29.4711 17.2232 32.2379 16.1789C32.8624 17.4601 33.6864 18.8115 34.6925 20.198C33.6864 21.5845 32.8624 22.9359 32.2379 24.2171C29.4711 23.1729 27.7364 21.7425 27.7364 20.198ZM32.2466 31.2286C31.1624 30.1317 31.3966 27.8852 32.6196 25.1649C33.9553 25.6212 35.4905 25.9897 37.1645 26.253C37.4247 27.9466 37.789 29.4999 38.24 30.8513C35.5512 32.0886 33.3308 32.3255 32.2466 31.2286ZM43.1492 35.7918C41.614 35.7918 40.2089 34.0279 39.1681 31.2198C40.4344 30.588 41.7788 29.7456 43.1492 28.7276C44.5196 29.7456 45.864 30.5792 47.1304 31.211C46.0982 34.0191 44.6844 35.783 43.1492 35.783V35.7918ZM54.0431 31.2286C52.959 32.3255 50.7385 32.0886 48.0498 30.8513C48.5008 29.4999 48.8651 27.9466 49.1253 26.253C50.7993 25.9897 52.3345 25.6212 53.6702 25.1649C54.8932 27.8852 55.1273 30.1317 54.0431 31.2286ZM54.0518 24.2171C53.4273 22.9359 52.6033 21.5845 51.5972 20.198C52.6033 18.8115 53.4273 17.4601 54.0518 16.1789C56.8187 17.2232 58.5534 18.6536 58.5534 20.198C58.5534 21.7425 56.8187 23.1729 54.0518 24.2171Z" fill="#151C2D"/>
<path d="M59.2906 20.198C59.2906 18.3289 57.4171 16.6704 54.3727 15.4945C55.6998 12.4845 55.8733 9.9748 54.5636 8.64973C53.2539 7.32466 50.7732 7.50016 47.7982 8.84279C46.636 5.76265 44.9967 3.86719 43.1492 3.86719C41.3018 3.86719 39.6625 5.76265 38.5002 8.84279C35.5252 7.50016 33.0446 7.32466 31.7349 8.64973C30.4252 9.9748 30.5986 12.4845 31.9257 15.4945C28.8813 16.6704 27.0078 18.3289 27.0078 20.198C27.0078 22.0672 28.8813 23.7257 31.9257 24.9016C30.5986 27.9115 30.4252 30.4213 31.7349 31.7463C32.3507 32.3694 33.218 32.659 34.2675 32.659C35.4645 32.659 36.913 32.2641 38.5002 31.5533C39.6625 34.6334 41.3018 36.5377 43.1492 36.5377C44.9967 36.5377 46.636 34.6334 47.7982 31.5533C49.3768 32.2641 50.8253 32.659 52.0222 32.659C53.0804 32.659 53.9477 32.3694 54.5549 31.7463C55.8646 30.4213 55.6911 27.9115 54.3641 24.9016C57.4085 23.7257 59.282 22.0672 59.282 20.198H59.2906ZM52.0396 8.47422C52.8896 8.47422 53.5748 8.70238 54.0431 9.17625C55.1273 10.2732 54.8932 12.5196 53.6702 15.24C52.3345 14.7837 50.7993 14.4151 49.1253 14.1518C48.8651 12.4582 48.5008 10.9138 48.0498 9.56236C49.5676 8.86911 50.938 8.47422 52.0309 8.47422H52.0396ZM48.839 20.198C48.839 20.9966 48.8043 21.7776 48.761 22.5498C48.2579 23.129 47.7288 23.6994 47.1737 24.2698C46.6186 24.8314 46.0462 25.3667 45.4737 25.8844C44.7105 25.9283 43.9385 25.9634 43.1492 25.9634C42.3599 25.9634 41.588 25.9283 40.8247 25.8844C40.2523 25.3667 39.6885 24.8402 39.1247 24.2698C38.5696 23.7082 38.0405 23.129 37.5375 22.5498C37.4941 21.7776 37.4594 20.9966 37.4594 20.198C37.4594 19.3995 37.4941 18.6185 37.5375 17.8463C38.0405 17.2671 38.5696 16.6967 39.1247 16.1263C39.6798 15.5647 40.2436 15.0294 40.816 14.5116C41.5793 14.4678 42.3599 14.4327 43.1492 14.4327C43.9385 14.4327 44.7105 14.4678 45.4737 14.5116C46.0462 15.0294 46.6099 15.5559 47.1737 16.1263C47.7288 16.6879 48.2579 17.2671 48.761 17.8463C48.8043 18.6185 48.839 19.3995 48.839 20.198ZM47.6855 15.6085C47.3472 15.2663 47.0003 14.9328 46.662 14.6082C47.2778 14.6608 47.8763 14.731 48.4661 14.8188C48.5528 15.4155 48.6222 16.021 48.6742 16.644C48.3533 16.293 48.0237 15.9508 47.6855 15.6085ZM45.7686 13.7921C45.1008 13.1953 44.4416 12.6425 43.7824 12.1248C45.014 11.2297 46.2283 10.475 47.3732 9.89582C47.7722 11.1244 48.1105 12.5196 48.3533 14.0378C47.5207 13.9237 46.662 13.8447 45.7686 13.7921ZM44.5717 13.7306C44.1033 13.7131 43.6263 13.7043 43.1492 13.7043C42.6722 13.7043 42.2038 13.7131 41.7441 13.7306C42.2125 13.3357 42.6809 12.9496 43.1579 12.5898C43.6263 12.9496 44.1033 13.327 44.5717 13.7306ZM40.5211 13.7921C39.6278 13.8447 38.7691 13.9325 37.9364 14.0378C38.1793 12.5109 38.5176 11.1156 38.9252 9.88705C40.0701 10.475 41.2844 11.2209 42.5247 12.116C41.8569 12.6337 41.189 13.1953 40.5211 13.7921ZM39.6364 14.6082C39.2895 14.9328 38.9512 15.2663 38.613 15.6085C38.2747 15.9508 37.9451 16.3018 37.6242 16.644C37.6762 16.021 37.7456 15.4155 37.8324 14.8188C38.4222 14.731 39.0206 14.6608 39.6364 14.6082ZM36.8176 17.5479C36.2278 18.2236 35.6727 18.8993 35.1609 19.575C34.2762 18.3201 33.539 17.0916 32.9578 15.9332C34.1808 15.5296 35.5599 15.1873 37.0604 14.9328C36.9477 15.7753 36.8696 16.644 36.8176 17.5479ZM36.7568 18.7589C36.7395 19.2328 36.7308 19.7154 36.7308 20.198C36.7308 20.6807 36.7395 21.1633 36.7568 21.6372C36.3579 21.1545 35.9849 20.6719 35.6293 20.198C35.9849 19.7154 36.3579 19.2415 36.7568 18.7589ZM36.8176 22.857C36.8696 23.7608 36.9563 24.6296 37.0604 25.472C35.5512 25.2263 34.1721 24.884 32.9578 24.4716C33.5303 23.3133 34.2675 22.0847 35.1609 20.8299C35.6727 21.5056 36.2278 22.1813 36.8176 22.857ZM37.6155 23.7608C37.9364 24.1118 38.266 24.4541 38.6043 24.7963C38.9426 25.1385 39.3069 25.4632 39.6538 25.7967C39.0293 25.744 38.4222 25.6651 37.8237 25.5861C37.7369 24.9894 37.6676 24.3839 37.6155 23.7608ZM40.5125 26.604C41.1803 27.2007 41.8569 27.7536 42.5247 28.2713C41.2844 29.1752 40.0701 29.9211 38.9252 30.5002C38.5262 29.2717 38.188 27.8764 37.9364 26.3495C38.7691 26.4636 39.6278 26.5426 40.5125 26.5952V26.604ZM41.7268 26.6742C42.1951 26.6918 42.6722 26.7005 43.1492 26.7005C43.6263 26.7005 44.1033 26.6918 44.5717 26.6742C44.0946 27.0779 43.6263 27.4552 43.1492 27.815C42.6722 27.4552 42.2038 27.0779 41.7268 26.6742ZM45.7773 26.604C46.662 26.5514 47.5207 26.4636 48.3533 26.3583C48.1105 27.8764 47.7722 29.2717 47.3645 30.509C46.2196 29.9211 45.0053 29.1752 43.765 28.2801C44.4329 27.7623 45.1008 27.2095 45.7773 26.6128V26.604ZM46.636 25.7967C46.9829 25.4632 47.3385 25.1473 47.6855 24.7963C48.0237 24.4541 48.3533 24.103 48.6742 23.7608C48.6222 24.3839 48.5528 24.9894 48.4661 25.5861C47.8676 25.6738 47.2605 25.744 46.636 25.7967ZM49.4809 22.857C50.0707 22.1813 50.6258 21.5056 51.1375 20.8299C52.0309 22.0847 52.7681 23.3133 53.3406 24.4716C52.1176 24.884 50.7385 25.2175 49.238 25.472C49.3508 24.6296 49.4288 23.7608 49.4809 22.857ZM49.5416 21.6372C49.5589 21.1633 49.5676 20.6807 49.5676 20.198C49.5676 19.7154 49.5589 19.2328 49.5416 18.7589C49.9406 19.2415 50.3135 19.7242 50.6692 20.198C50.3135 20.6807 49.9319 21.1545 49.5416 21.6372ZM49.4809 17.5479C49.4288 16.644 49.3421 15.7753 49.238 14.9328C50.7472 15.1786 52.1263 15.5208 53.3406 15.9332C52.7681 17.0916 52.0309 18.3201 51.1375 19.575C50.6258 18.8993 50.0707 18.2236 49.4809 17.5479ZM43.1492 4.60431C44.6758 4.60431 46.0895 6.35937 47.1217 9.1587C45.8554 9.79052 44.5196 10.6242 43.1492 11.6421C41.7788 10.6242 40.4431 9.79052 39.1768 9.1587C40.2089 6.35937 41.6227 4.60431 43.1492 4.60431ZM32.2466 9.17625C33.3308 8.07934 35.5512 8.31627 38.24 9.55359C37.789 10.905 37.4247 12.4582 37.1645 14.1518C35.4905 14.4151 33.9553 14.7837 32.6196 15.24C31.3966 12.5196 31.1624 10.2732 32.2466 9.17625ZM27.7364 20.198C27.7364 18.6536 29.4711 17.2232 32.2379 16.1789C32.8624 17.4601 33.6864 18.8115 34.6925 20.198C33.6864 21.5845 32.8624 22.9359 32.2379 24.2171C29.4711 23.1729 27.7364 21.7425 27.7364 20.198ZM32.2466 31.2286C31.1624 30.1317 31.3966 27.8852 32.6196 25.1649C33.9553 25.6212 35.4905 25.9897 37.1645 26.253C37.4247 27.9466 37.789 29.4999 38.24 30.8513C35.5512 32.0886 33.3308 32.3255 32.2466 31.2286ZM43.1492 35.7918C41.614 35.7918 40.2089 34.0279 39.1681 31.2198C40.4344 30.588 41.7788 29.7456 43.1492 28.7276C44.5196 29.7456 45.864 30.5792 47.1304 31.211C46.0982 34.0191 44.6844 35.783 43.1492 35.783V35.7918ZM54.0431 31.2286C52.959 32.3255 50.7385 32.0886 48.0498 30.8513C48.5008 29.4999 48.8651 27.9466 49.1253 26.253C50.7993 25.9897 52.3345 25.6212 53.6702 25.1649C54.8932 27.8852 55.1273 30.1317 54.0431 31.2286ZM54.0518 24.2171C53.4273 22.9359 52.6033 21.5845 51.5972 20.198C52.6033 18.8115 53.4273 17.4601 54.0518 16.1789C56.8187 17.2232 58.5534 18.6536 58.5534 20.198C58.5534 21.7425 56.8187 23.1729 54.0518 24.2171Z" stroke="#151C2D" stroke-width="0.4" mask="url(#path-9-outside-1_7540_62924)"/>
</g>
<defs>
<clipPath id="clip0_7540_62924">
<rect width="227" height="49.1977" fill="white"/>
</clipPath>
</defs>
</svg>
