<svg width="228" height="50" viewBox="0 0 228 50" fill="none" xmlns="http://www.w3.org/2000/svg">
    <g clip-path="url(#clip0_6667_20075)">
        <path
                d="M222.888 6.26646C222.888 5.85297 222.992 5.46445 223.193 5.10645C223.394 4.74846 223.681 4.45984 224.036 4.25726C224.391 4.04635 224.774 3.94922 225.193 3.94922C225.612 3.94922 225.981 4.05467 226.344 4.25726C226.7 4.45984 226.986 4.74846 227.187 5.10645C227.388 5.46445 227.493 5.85019 227.493 6.27201C227.493 6.69383 227.396 7.06015 227.193 7.41814C226.991 7.77614 226.719 8.05643 226.355 8.27566C226 8.48657 225.609 8.59758 225.185 8.59758C224.76 8.59758 224.369 8.49212 224.014 8.27566C223.659 8.06475 223.381 7.77614 223.177 7.42647C222.989 7.0546 222.885 6.67441 222.885 6.26646H222.888ZM223.174 6.26646C223.174 6.63278 223.265 6.96857 223.447 7.28494C223.628 7.59298 223.871 7.84829 224.185 8.02868C224.499 8.20906 224.832 8.30342 225.196 8.30342C225.559 8.30342 225.893 8.21184 226.207 8.02868C226.512 7.84552 226.766 7.6013 226.945 7.28494C227.124 6.96857 227.217 6.63278 227.217 6.26646C227.217 5.90014 227.126 5.5699 226.953 5.26186C226.779 4.95382 226.534 4.69851 226.22 4.5098C225.906 4.32109 225.565 4.22951 225.196 4.22951C224.827 4.22951 224.499 4.32109 224.19 4.50425C223.876 4.68741 223.631 4.93162 223.452 5.25631C223.27 5.57823 223.174 5.90847 223.174 6.26924V6.26646ZM226.019 5.69201C226.019 5.85297 225.978 6.00005 225.901 6.11938C225.824 6.24704 225.713 6.34417 225.559 6.41354L226.284 7.62906H225.915L225.273 6.519H224.758V7.62906H224.452V4.90942H225.099C225.391 4.90942 225.614 4.97325 225.777 5.09813C225.939 5.22301 226.022 5.42004 226.022 5.68923L226.019 5.69201ZM224.755 6.26646H225.096C225.284 6.26646 225.433 6.21651 225.534 6.12493C225.639 6.0278 225.694 5.89182 225.694 5.70311C225.694 5.35066 225.493 5.17028 225.088 5.17028H224.752V6.26646H224.755Z"
                fill="white"/>
        <path
                d="M17.0219 0C7.11173 0 0 7.94523 0 17.5444V17.6416C0 27.3795 7.16957 35.0861 16.8814 35.0861C22.9905 35.0861 26.8384 32.7106 30.3474 29.1279L27.8437 26.6552C24.6211 29.7523 21.5968 31.5533 16.9723 31.5533C9.56585 31.5533 3.93872 25.3981 3.93872 17.55V17.4529C3.93872 9.65471 9.51627 3.54108 16.9723 3.54108C21.539 3.54108 24.712 5.4809 27.5517 8.19222L30.1463 5.381C26.7833 2.17849 23.131 0 17.0219 0Z"
                fill="white"/>
        <path
                d="M67.3277 9.00781C62.425 9.00781 58.8636 11.8662 58.8636 16.1816V16.2787C58.8636 20.8882 63.1935 22.2425 67.0854 23.3525C70.3548 24.2739 73.2909 25.2424 73.2909 27.765V27.8621C73.2909 30.2848 71.1287 31.8389 68.1458 31.8389C65.1628 31.8389 62.2322 30.6733 59.5329 28.6419L57.6572 31.3033C60.4474 33.5789 64.3861 34.9859 67.9502 34.9859C72.8998 34.9859 76.7999 32.2246 76.7999 27.4764V27.3792C76.7999 22.8696 72.6657 21.3711 68.8151 20.2055C65.4961 19.187 62.4195 18.2657 62.4195 15.8929V15.7958C62.4195 13.7089 64.2952 12.1631 67.2313 12.1631C69.6359 12.1631 72.2801 13.0845 74.5882 14.5858L76.2684 11.7746C73.7233 10.0735 70.3548 9.00781 67.3277 9.00781Z"
                fill="white"/>
        <path
                d="M108.533 8.9082C104.204 8.9082 101.559 11.1366 99.7828 13.9035C98.4359 11.0922 95.8358 8.9082 91.798 8.9082C87.7601 8.9082 85.4024 11.1838 83.7663 13.6565V9.44103H80.0645V34.495H83.7663V20.2058C83.7663 15.6046 86.7437 12.3078 90.6907 12.3078C94.6377 12.3078 97.0863 15.069 97.0863 19.7701V34.5033H100.741V20.0587C100.741 15.119 103.873 12.3105 107.616 12.3105C111.654 12.3105 114.059 15.0218 114.059 19.87V34.5033H117.76V18.9903C117.774 12.7879 114.26 8.9082 108.536 8.9082"
                fill="white"/>
        <path
                d="M133.639 31.7365C128.395 31.7365 124.456 27.374 124.456 21.9985V21.9014C124.456 16.6175 128.158 12.2134 133.543 12.2134C138.928 12.2134 142.775 16.6259 142.775 22.0013V22.0984C142.775 27.374 139.03 31.7365 133.642 31.7365M133.639 8.9082C126.136 8.9082 120.655 14.9164 120.655 21.9902V22.0873C120.655 29.1612 126.087 35.0722 133.543 35.0722C140.999 35.0722 146.576 29.0641 146.576 21.9902V21.8931C146.576 14.8248 141.095 8.9082 133.642 8.9082"
                fill="white"/>
        <path d="M156.964 0.578125H149.558V34.4959H173.746V27.7162H156.964V0.578125Z" fill="white"/>
        <path
                d="M180.391 19.4759C180.97 16.1319 182.945 13.9534 185.969 13.9534C188.993 13.9534 190.968 16.1818 191.4 19.4759H180.391ZM185.969 8.0368C178.466 8.0368 173.222 14.1421 173.222 21.5545V21.6516C173.222 29.5969 178.945 35.0694 186.688 35.0694C191.354 35.0694 194.819 33.2295 197.218 30.2213L193.034 26.4915C191.012 28.3814 189.233 29.1528 186.779 29.1528C183.509 29.1528 181.201 27.4101 180.482 24.066H198.416C198.465 23.3833 198.512 22.709 198.512 22.1262C198.52 14.7693 194.573 8.03125 185.969 8.03125"
                fill="white"/>
        <path
                d="M222.222 8.52148H214.573L209.72 16.081L204.908 8.52148H197.072L205.773 21.3149L196.73 34.494H204.379L209.574 26.4017L214.769 34.494H222.608L213.513 21.1678L222.222 8.52148Z"
                fill="white"/>
        <path
                d="M169.402 41.8796H170.813V42.9147C171.267 42.2681 171.909 41.752 172.911 41.752C174.357 41.752 175.768 42.9036 175.768 44.9711V44.9961C175.768 47.0525 174.368 48.2153 172.911 48.2153C171.884 48.2153 171.242 47.6991 170.813 47.1219V49.9664H169.402V41.8824V41.8796ZM174.335 44.9933V44.9683C174.335 43.7695 173.531 42.9813 172.575 42.9813C171.62 42.9813 170.78 43.7806 170.78 44.9683V44.9933C170.78 46.1811 171.62 46.9803 172.575 46.9803C173.531 46.9803 174.335 46.2172 174.335 44.9933Z"
                fill="white"/>
        <path
                d="M176.993 41.8807H178.403V43.2794C178.789 42.3497 179.5 41.717 180.585 41.7642V43.2683H180.502C179.265 43.2683 178.403 44.0787 178.403 45.7243V48.086H176.993V41.8807Z"
                fill="white"/>
        <path
                d="M180.749 45.0183V44.9961C180.749 43.2228 182.148 41.752 184.038 41.752C185.927 41.752 187.315 43.1978 187.315 44.9711V44.9961C187.315 46.7583 185.916 48.2264 184.016 48.2264C182.115 48.2264 180.749 46.7805 180.749 45.0183ZM185.905 45.0183V44.9961C185.905 43.9027 185.123 42.998 184.016 42.998C182.908 42.998 182.162 43.8916 182.162 44.9711V44.9961C182.162 46.0784 182.944 46.9831 184.04 46.9831C185.137 46.9831 185.908 46.0895 185.908 45.0211L185.905 45.0183Z"
                fill="white"/>
        <path
                d="M188.595 43.1008H187.812V41.913H188.595V41.4551C188.595 40.7724 188.771 40.2562 189.096 39.926C189.421 39.5958 189.878 39.432 190.484 39.432C190.873 39.4265 191.255 39.482 191.627 39.5958V40.7946C191.346 40.7003 191.104 40.642 190.798 40.642C190.261 40.642 189.98 40.9361 189.98 41.5828V41.9213H191.613V43.098H190.005V48.0821H188.592V43.1008H188.595ZM192.746 41.8797H194.156V48.0849H192.746V41.8797Z"
                fill="white"/>
        <path
                d="M196.293 46.3671V43.1008H195.511V41.8797H196.293V40.1758H197.703V41.8797H199.359V43.1008H197.703V46.1451C197.703 46.6974 197.984 46.9221 198.461 46.9221C198.764 46.9221 199.064 46.85 199.337 46.7112V47.874C198.987 48.0738 198.601 48.1904 198.064 48.1904C197.026 48.1904 196.29 47.7325 196.29 46.3699L196.293 46.3671Z"
                fill="white"/>
        <path
                d="M200.528 47.2749L201.159 46.3119C201.836 46.817 202.547 47.0751 203.178 47.0751C203.809 47.0751 204.134 46.817 204.134 46.4063V46.3813C204.134 45.8984 203.481 45.7347 202.756 45.5127C201.847 45.2546 200.831 44.8772 200.831 43.6922V43.67C200.831 42.4961 201.801 41.7773 203.024 41.7773C203.795 41.7773 204.632 42.0465 205.285 42.4822L204.723 43.4924C204.128 43.1288 203.497 42.9041 202.985 42.9041C202.437 42.9041 202.123 43.1621 202.123 43.5146V43.5368C202.123 43.9947 202.789 44.1834 203.511 44.4193C204.409 44.7023 205.423 45.1131 205.423 46.2287V46.2509C205.423 47.5552 204.42 48.2018 203.137 48.2018C202.263 48.2018 201.294 47.8854 200.525 47.2749H200.528Z"
                fill="white"/>
        <path
                d="M206.299 45.0183V44.9961C206.299 43.2228 207.698 41.752 209.588 41.752C211.477 41.752 212.865 43.1978 212.865 44.9711V44.9961C212.865 46.7583 211.466 48.2264 209.565 48.2264C207.665 48.2264 206.299 46.7805 206.299 45.0183ZM211.452 45.0183V44.9961C211.452 43.9027 210.67 42.998 209.563 42.998C208.455 42.998 207.709 43.8916 207.709 44.9711V44.9961C207.709 46.0784 208.491 46.9831 209.588 46.9831C210.684 46.9831 211.452 46.0895 211.452 45.0211V45.0183Z"
                fill="white"/>
        <path d="M213.913 39.5078H215.333V48.0858H213.913V39.5078Z" fill="white"/>
        <path
                d="M216.357 41.8809H217.875L219.53 46.4432L221.2 41.8809H222.681L220.161 48.1333H218.889L216.357 41.8809Z"
                fill="white"/>
        <path d="M193.453 39.0793L192.376 40.1641L193.453 41.2489L194.529 40.1641L193.453 39.0793Z"
              fill="white"/>
        <path
                d="M162.806 45.0054H164.194L164.72 46.4373L166.389 41.875H167.871L165.351 48.1302H164.078L162.808 45.0054H162.806Z"
                fill="white"/>
        <path d="M164.724 46.4395L165.359 48.1323H164.078L164.724 46.4395Z" fill="white"/>
        <path
                d="M152.631 42.1017C153.303 42.1017 153.826 42.332 154.201 42.7955C154.572 43.2589 154.76 43.9139 154.76 44.7631C154.76 45.6123 154.572 46.27 154.195 46.739C153.82 47.208 153.297 47.4439 152.631 47.4439C152.297 47.4439 151.992 47.3828 151.716 47.2579C151.441 47.133 151.209 46.9443 151.022 46.6862H150.967L150.804 47.3495H150.248V40.0176H151.025V41.7992C151.025 42.1988 151.014 42.5568 150.986 42.8732H151.025C151.386 42.357 151.923 42.1017 152.633 42.1017H152.631ZM152.518 42.7566C151.989 42.7566 151.606 42.9093 151.372 43.2173C151.138 43.5226 151.022 44.0388 151.022 44.7658C151.022 45.4929 151.143 46.0091 151.383 46.3227C151.622 46.6363 152.008 46.7917 152.537 46.7917C153.013 46.7917 153.369 46.6169 153.603 46.2672C153.837 45.9175 153.953 45.4125 153.953 44.7575C153.953 44.1026 153.837 43.5836 153.603 43.2534C153.369 42.9232 153.008 42.7594 152.518 42.7594V42.7566Z"
                fill="white"/>
        <path
                d="M155.304 42.1875H156.135L157.256 45.1319C157.501 45.8035 157.656 46.2892 157.714 46.5889H157.752C157.793 46.4279 157.879 46.1559 158.008 45.7674C158.138 45.3789 158.562 44.1856 159.278 42.1903H160.11L157.906 48.0708C157.689 48.6508 157.433 49.0643 157.141 49.3085C156.849 49.5527 156.491 49.6748 156.066 49.6748C155.83 49.6748 155.595 49.6471 155.364 49.5944V48.9672C155.535 49.006 155.728 49.0227 155.94 49.0227C156.474 49.0227 156.854 48.7202 157.08 48.118L157.367 47.3826L155.301 42.1903L155.304 42.1875Z"
                fill="white"/>
        <path
                d="M57.8674 20.1815C57.7738 18.0447 54.8955 16.9013 53.2153 16.2047C53.1464 16.1798 53.0776 16.1576 53.0087 16.1326C55.9091 9.81636 53.5568 7.48525 47.31 10.3686C44.9302 3.86369 41.636 3.90254 39.2453 10.3797C32.9956 7.47692 30.693 9.84967 33.5493 16.1326C27.0986 18.5303 27.1316 21.8466 33.5493 24.2526C33.5217 24.3109 33.4914 24.3692 33.4666 24.4303C32.7753 26.1231 31.5468 28.9843 32.9846 30.5661C34.5518 32.0092 37.3888 30.7687 39.0662 30.0638C39.1296 30.036 39.1902 30.0027 39.2508 29.975C39.2755 30.0444 39.3003 30.1165 39.3251 30.1859C40.0165 31.8676 41.1733 34.7843 43.2914 34.8676C45.4122 34.7732 46.547 31.8732 47.2384 30.1804C47.2632 30.1165 47.2824 30.0499 47.3072 29.9861C47.3761 30.0166 47.4422 30.0527 47.5083 30.0832C49.1884 30.7798 52.0282 32.0175 53.5982 30.5689C55.0304 28.9898 53.7992 26.1314 53.0996 24.4414C53.0721 24.3775 53.039 24.3165 53.0115 24.2554C53.0803 24.2304 53.152 24.2055 53.2208 24.1805C54.8899 23.4839 57.7848 22.3184 57.8674 20.1843V20.1815ZM51.8629 15.7357C50.7722 15.3861 49.6622 15.103 48.5384 14.8921C48.3649 13.9597 48.1528 13.0355 47.8856 12.1253C47.8306 11.9338 47.7727 11.7506 47.7149 11.5647C53.0335 8.09855 55.2756 10.3769 51.8629 15.7357ZM46.4974 27.938C46.4974 27.938 46.4837 27.9269 46.4782 27.9242C45.9108 27.4774 45.3571 27.0139 44.809 26.5421C45.0679 26.3368 45.3213 26.1259 45.572 25.9122C45.9548 25.8817 46.3349 25.8428 46.715 25.7956C46.6572 26.5088 46.5883 27.222 46.5002 27.9325V27.938H46.4974ZM40.1156 27.9519C40.1156 27.9519 40.1156 27.9353 40.1129 27.9269C40.0247 27.2193 39.9614 26.5088 39.9035 25.7984C40.2478 25.84 40.5949 25.8789 40.9419 25.9066C41.2146 26.1397 41.4928 26.3673 41.7737 26.5893C41.2311 27.0528 40.683 27.5079 40.1211 27.9464C40.1211 27.9464 40.1184 27.9491 40.1156 27.9491V27.9519ZM44.8311 23.7781C43.8202 23.792 42.8121 23.7864 41.8013 23.767C41.0962 23.0732 40.4048 22.3683 39.7218 21.6551C39.708 20.6644 39.7135 19.6709 39.7328 18.6802C40.4296 17.9586 41.143 17.251 41.8619 16.5516C42.8314 16.5322 43.8009 16.5294 44.7732 16.5433C45.4921 17.2399 46.2 17.9448 46.8941 18.6635C46.9134 19.6653 46.9189 20.6699 46.9051 21.6745C46.2248 22.3878 45.5362 23.0899 44.8311 23.7809V23.7781ZM45.6298 14.498C45.3544 14.2621 45.0734 14.0346 44.7898 13.8098C45.3847 13.2908 45.9548 12.8274 46.5002 12.4194C46.5994 13.0938 46.6792 13.8264 46.7398 14.6118C46.3707 14.5674 46.0017 14.5286 45.6298 14.498ZM40.8868 14.5008C40.5508 14.5286 40.2148 14.5674 39.8787 14.6063C39.9366 13.8181 40.0137 13.0827 40.1129 12.4056C40.6472 12.8052 41.2063 13.2548 41.7903 13.7598C41.4845 14.0013 41.1843 14.2483 40.8868 14.5008ZM37.6092 17.8115C37.3806 18.0835 37.1575 18.3582 36.9399 18.6385C36.4358 18.0502 35.9869 17.4869 35.5875 16.9485C36.2458 16.8486 36.9591 16.7709 37.7221 16.7098C37.678 17.0761 37.6395 17.4425 37.6092 17.8115ZM37.6119 22.5543C37.6422 22.9095 37.6753 23.2619 37.7193 23.6171C36.9646 23.5616 36.2623 23.4839 35.6095 23.3896C36.0447 22.829 36.4964 22.2795 36.9536 21.7384C37.1685 22.0131 37.3861 22.2878 37.6119 22.5543ZM48.9323 22.5376C49.1692 22.2573 49.4005 21.9715 49.6264 21.6801C50.0946 22.2351 50.5574 22.7985 51.0008 23.3757C51.0008 23.3757 51.0036 23.3785 51.0036 23.3813C50.9953 23.3813 50.987 23.3813 50.9788 23.384C50.2626 23.4728 49.5465 23.5394 48.8276 23.5977C48.8689 23.2453 48.9047 22.8901 48.9323 22.5348V22.5376ZM48.935 17.8282C48.9047 17.4619 48.8662 17.0956 48.8249 16.7292C49.5465 16.7875 50.2681 16.8569 50.987 16.9513C51.0008 16.9513 51.0146 16.9568 51.0284 16.9568C50.6207 17.5118 50.158 18.0946 49.6429 18.6996C49.4143 18.4054 49.1774 18.114 48.9378 17.8282H48.935ZM46.2248 10.9014C46.0457 10.9958 45.8667 11.0874 45.6822 11.1873C44.8476 11.6424 44.0433 12.1447 43.2611 12.6831C42.4954 12.1558 41.7049 11.6618 40.8896 11.2123C40.7133 11.1151 40.5453 11.0263 40.3745 10.9375C41.6994 4.70733 44.8751 4.71011 46.2275 10.9014H46.2248ZM38.8514 11.5286C38.7908 11.7229 38.7274 11.9171 38.6696 12.1197C38.3997 13.0355 38.1821 13.9652 38.0058 14.9032C37.0941 15.0753 36.1879 15.2889 35.2955 15.5526C35.1055 15.6081 34.9237 15.6664 34.7391 15.7246C31.3045 10.3742 33.552 8.1152 38.8514 11.5286ZM34.0808 17.226C34.1745 17.4064 34.2654 17.5868 34.3645 17.7727C34.8107 18.5997 35.301 19.4017 35.8244 20.1787C35.1881 21.1195 34.6097 22.1019 34.0946 23.1176C27.9331 21.78 27.9414 18.5858 34.0808 17.226ZM33.5052 30.0416C32.4613 28.7206 33.6346 26.3479 34.7254 24.6606C34.9099 24.7189 35.0944 24.7799 35.29 24.8382C36.1852 25.1074 37.0941 25.3239 38.0113 25.4987C38.2234 26.6254 38.5071 27.7382 38.8569 28.8316C37.1767 29.925 34.8163 31.1017 33.5052 30.0416ZM43.2914 34.1266C41.6167 33.9351 40.7822 31.3959 40.3718 29.42C41.3689 28.901 42.3329 28.3182 43.2611 27.6827C44.2113 28.3349 45.2001 28.9288 46.2275 29.456C45.8061 31.4264 44.9633 33.9407 43.2941 34.1266H43.2914ZM53.0803 30.0416C51.761 31.0989 49.3895 29.8973 47.7121 28.7956C48.0537 27.716 48.3263 26.6198 48.5357 25.5098C49.6649 25.2933 50.7805 25.0075 51.8767 24.6523C52.9619 26.3451 54.1297 28.7234 53.0776 30.0444L53.0803 30.0416ZM50.7144 20.1787C51.2459 19.3962 51.7445 18.5914 52.1962 17.7588C52.2953 17.5757 52.3862 17.398 52.4771 17.2204C54.4355 17.6423 56.9502 18.4915 57.132 20.1815C56.9419 21.8688 54.4217 22.7097 52.4606 23.1232C51.9373 22.1047 51.3534 21.1223 50.7116 20.1787H50.7144Z"
                fill="white"/>
    </g>
    <defs>
        <clipPath id="clip0_6667_20075">
            <rect width="227.495" height="49.9636" fill="white"/>
        </clipPath>
    </defs>
</svg>