<svg xmlns="http://www.w3.org/2000/svg" viewBox="0 0 145 25" fill="none">
    <path d="M10.8504 0.855469C4.53393 0.855469 0 5.91813 0 12.0346V12.0959C0 18.3016 4.56715 23.2137 10.7619 23.2137C14.6536 23.2137 17.106 21.7027 19.3426 19.4167L17.7482 17.8388C15.6944 19.8126 13.7679 20.9611 10.8172 20.9611C6.09506 20.9611 2.50778 17.0415 2.50778 12.0402V11.9788C2.50778 7.01095 6.06185 3.11359 10.8172 3.11359C13.7291 3.11359 15.7497 4.35138 17.56 6.07425L19.2152 4.28447C17.0728 2.2438 14.7422 0.855469 10.8504 0.855469Z" fill="#0C193A"/>
    <path d="M42.9151 6.59375C39.7928 6.59375 37.5175 8.41698 37.5175 11.1658V11.2271C37.5175 14.1654 40.28 15.0297 42.7601 15.7322C44.8471 16.3176 46.7183 16.9365 46.7183 18.5423V18.6036C46.7183 20.1481 45.3398 21.135 43.4355 21.135C41.5311 21.135 39.6655 20.3934 37.9438 19.0999L36.748 20.7948C38.5251 22.2445 41.0384 23.1422 43.3081 23.1422C46.4636 23.1422 48.9492 21.3803 48.9492 18.3583V18.297C48.9492 15.4255 46.3141 14.4721 43.8617 13.725C41.747 13.0782 39.7873 12.4872 39.7873 10.9762V10.9149C39.7873 9.58786 40.983 8.60097 42.8542 8.60097C44.3876 8.60097 46.0706 9.18641 47.5431 10.1454L48.6116 8.35565C46.9895 7.27398 44.8416 6.59375 42.9151 6.59375Z" fill="#0C193A"/>
    <path d="M69.18 6.5332C66.4176 6.5332 64.7346 7.95499 63.5998 9.71688C62.7417 7.92711 61.0865 6.5332 58.5122 6.5332C55.938 6.5332 54.4378 7.98286 53.3915 9.56076V6.87332H51.0332V22.8363H53.3915V13.7313C53.3915 10.7986 55.2903 8.70212 57.8036 8.70212C60.317 8.70212 61.8781 10.464 61.8781 13.4581V22.8475H64.2087V13.6421C64.2087 10.4975 66.2017 8.70212 68.5932 8.70212C71.1674 8.70212 72.7008 10.4306 72.7008 13.5195V22.8419H75.0592V12.9563C75.0702 9.0032 72.8282 6.5332 69.18 6.5332Z" fill="#0C193A"/>
    <path d="M85.1844 21.08C81.8407 21.08 79.3329 18.2978 79.3329 14.8743V14.813C79.3329 11.4453 81.6913 8.64079 85.1235 8.64079C88.5558 8.64079 91.0082 11.4509 91.0082 14.8743V14.9357C91.0082 18.2978 88.6222 21.08 85.1844 21.08ZM85.1844 6.5332C80.4014 6.5332 76.9082 10.3581 76.9082 14.8688V14.9301C76.9082 19.4352 80.3682 23.2043 85.1235 23.2043C89.8789 23.2043 93.433 19.3794 93.433 14.8688V14.8074C93.433 10.3023 89.9398 6.5332 85.19 6.5332" fill="#0C193A"/>
    <path d="M100.047 1.22266H95.3301V22.8338H110.748V18.5126H100.047V1.22266Z" fill="#0C193A"/>
    <path d="M114.977 13.2672C115.348 11.1373 116.605 9.74902 118.531 9.74902C120.458 9.74902 121.72 11.1708 121.991 13.2672H114.972M118.537 5.97433C113.754 5.97433 110.41 9.86611 110.41 14.5887V14.65C110.41 19.7126 114.058 23.1974 118.991 23.1974C121.964 23.1974 124.172 22.0265 125.7 20.1085L123.032 17.7333C121.742 18.9376 120.607 19.4283 119.046 19.4283C116.959 19.4283 115.492 18.3187 115.033 16.1889H126.464C126.498 15.754 126.525 15.3246 126.525 14.9511C126.525 10.262 124.012 5.96875 118.531 5.96875" fill="#0C193A"/>
    <path d="M141.641 6.28711H136.769L133.674 11.1044L130.607 6.28711H125.614L131.161 14.4387L125.393 22.8355H130.27L133.58 17.6781L136.891 22.8355H141.89L136.094 14.3439L141.641 6.28711Z" fill="#0C193A"/>
    <path d="M142.072 4.84696C142.072 4.58491 142.138 4.33401 142.265 4.11098C142.393 3.88238 142.575 3.69839 142.802 3.57015C143.029 3.43633 143.273 3.375 143.539 3.375C143.804 3.375 144.042 3.44191 144.269 3.57015C144.496 3.69839 144.679 3.88238 144.806 4.11098C144.934 4.33958 145 4.58491 145 4.85254C145 5.12017 144.939 5.35434 144.806 5.58294C144.679 5.81154 144.502 5.98996 144.275 6.12936C144.048 6.26317 143.799 6.33565 143.528 6.33565C143.256 6.33565 143.007 6.26875 142.78 6.12936C142.553 5.99554 142.376 5.81155 142.249 5.58852C142.127 5.34877 142.061 5.10902 142.061 4.85254L142.072 4.84696ZM142.254 4.84696C142.254 5.08114 142.31 5.29301 142.426 5.49373C142.542 5.68888 142.697 5.85057 142.896 5.96766C143.096 6.08475 143.312 6.14051 143.539 6.14051C143.766 6.14051 143.982 6.08475 144.181 5.96766C144.375 5.85057 144.535 5.69446 144.651 5.49373C144.768 5.29301 144.823 5.07556 144.823 4.84696C144.823 4.61836 144.768 4.40649 144.651 4.20577C144.535 4.00504 144.386 3.84893 144.186 3.72626C143.987 3.6036 143.771 3.54784 143.533 3.54784C143.295 3.54784 143.09 3.6036 142.891 3.72069C142.692 3.83778 142.537 3.99389 142.42 4.20019C142.304 4.40649 142.243 4.61836 142.243 4.84696H142.254ZM144.065 4.47897C144.065 4.57933 144.037 4.67412 143.987 4.75218C143.937 4.83024 143.865 4.89714 143.771 4.94175L144.231 5.71676H143.993L143.583 5.00866H143.256V5.71676H143.063V3.98274H143.478C143.666 3.98274 143.804 4.02177 143.91 4.10541C144.015 4.18904 144.065 4.3117 144.065 4.47897ZM143.262 4.84696H143.478C143.6 4.84696 143.694 4.81351 143.76 4.75775C143.827 4.69642 143.86 4.61279 143.86 4.49012C143.86 4.2671 143.732 4.15001 143.472 4.15001H143.256V4.84696H143.262Z" fill="#0C193A"/>
    <mask id="path-9-outside-1_7392_79040" maskUnits="userSpaceOnUse" x="16.2129" y="2.80469" width="22" height="22" fill="black">
        <rect fill="white" x="16.2129" y="2.80469" width="22" height="22"/>
        <path d="M37.8176 14.1809C37.8176 12.9933 36.6219 11.9395 34.6788 11.1924C35.5258 9.27994 35.6365 7.68532 34.8006 6.8434C33.9646 6.00148 32.3814 6.11299 30.4825 6.96606C29.7407 5.00902 28.6944 3.80469 27.5153 3.80469C26.3361 3.80469 25.2898 5.00902 24.548 6.96606C22.6492 6.11299 21.0659 6.00148 20.23 6.8434C19.394 7.68532 19.5048 9.27994 20.3518 11.1924C18.4087 11.9395 17.2129 12.9933 17.2129 14.1809C17.2129 15.3685 18.4087 16.4223 20.3518 17.1694C19.5048 19.0819 19.394 20.6765 20.23 21.5184C20.623 21.9143 21.1766 22.0983 21.8465 22.0983C22.6104 22.0983 23.5349 21.8474 24.548 21.3958C25.2898 23.3528 26.3361 24.5627 27.5153 24.5627C28.6944 24.5627 29.7407 23.3528 30.4825 21.3958C31.4901 21.8474 32.4146 22.0983 33.1785 22.0983C33.8539 22.0983 34.4075 21.9143 34.795 21.5184C35.6309 20.6765 35.5202 19.0819 34.6732 17.1694C36.6163 16.4223 37.8121 15.3685 37.8121 14.1809H37.8176ZM33.1896 6.73189C33.7321 6.73189 34.1695 6.87685 34.4684 7.17794C35.1604 7.87489 35.0109 9.30225 34.2304 11.0307C33.3778 10.7408 32.398 10.5066 31.3295 10.3393C31.1634 9.26322 30.9309 8.28191 30.6431 7.42326C31.6119 6.98279 32.4865 6.73189 33.1841 6.73189H33.1896ZM31.1468 14.1809C31.1468 14.6883 31.1247 15.1845 31.097 15.6752C30.7759 16.0432 30.4382 16.4056 30.0839 16.768C29.7296 17.1248 29.3643 17.465 28.9989 17.7939C28.5117 17.8218 28.019 17.8441 27.5153 17.8441C27.0115 17.8441 26.5188 17.8218 26.0316 17.7939C25.6663 17.465 25.3064 17.1304 24.9466 16.768C24.5923 16.4112 24.2546 16.0432 23.9335 15.6752C23.9058 15.1845 23.8837 14.6883 23.8837 14.1809C23.8837 13.6735 23.9058 13.1773 23.9335 12.6866C24.2546 12.3187 24.5923 11.9562 24.9466 11.5938C25.3009 11.237 25.6607 10.8969 26.0261 10.5679C26.5133 10.54 27.0115 10.5177 27.5153 10.5177C28.019 10.5177 28.5117 10.54 28.9989 10.5679C29.3643 10.8969 29.7241 11.2314 30.0839 11.5938C30.4382 11.9507 30.7759 12.3187 31.097 12.6866C31.1247 13.1773 31.1468 13.6735 31.1468 14.1809ZM30.4106 11.2649C30.1947 11.0474 29.9732 10.8355 29.7573 10.6292C30.1504 10.6627 30.5324 10.7073 30.9088 10.7631C30.9642 11.1422 31.0084 11.5269 31.0417 11.9228C30.8368 11.6998 30.6265 11.4823 30.4106 11.2649ZM29.1871 10.1107C28.7609 9.73157 28.3401 9.3803 27.9194 9.05134C28.7055 8.48263 29.4805 8.00313 30.2113 7.63514C30.4659 8.41572 30.6818 9.30225 30.8368 10.2668C30.3054 10.1943 29.7573 10.1442 29.1871 10.1107ZM28.4232 10.0717C28.1242 10.0605 27.8197 10.055 27.5153 10.055C27.2108 10.055 26.9118 10.0605 26.6184 10.0717C26.9174 9.82078 27.2163 9.57545 27.5208 9.34685C27.8197 9.57545 28.1242 9.8152 28.4232 10.0717ZM25.8379 10.1107C25.2677 10.1442 24.7196 10.1999 24.1882 10.2668C24.3432 9.29667 24.5591 8.41015 24.8193 7.62956C25.55 8.00313 26.325 8.47705 27.1167 9.04577C26.6904 9.37473 26.2641 9.73157 25.8379 10.1107ZM25.2732 10.6292C25.0518 10.8355 24.8359 11.0474 24.62 11.2649C24.4041 11.4823 24.1937 11.7053 23.9889 11.9228C24.0221 11.5269 24.0664 11.1422 24.1217 10.7631C24.4982 10.7073 24.8802 10.6627 25.2732 10.6292ZM23.474 12.4971C23.0976 12.9264 22.7433 13.3557 22.4167 13.785C21.852 12.9877 21.3814 12.2071 21.0105 11.4712C21.7911 11.2147 22.6713 10.9972 23.629 10.8355C23.5571 11.3708 23.5072 11.9228 23.474 12.4971ZM23.4353 13.2665C23.4242 13.5676 23.4187 13.8743 23.4187 14.1809C23.4187 14.4876 23.4242 14.7942 23.4353 15.0953C23.1806 14.7887 22.9426 14.482 22.7156 14.1809C22.9426 13.8743 23.1806 13.5732 23.4353 13.2665ZM23.474 15.8703C23.5072 16.4446 23.5626 16.9966 23.629 17.5319C22.6658 17.3757 21.7856 17.1583 21.0105 16.8962C21.3759 16.1603 21.8465 15.3797 22.4167 14.5824C22.7433 15.0117 23.0976 15.441 23.474 15.8703ZM23.9833 16.4446C24.1882 16.6676 24.3985 16.8851 24.6144 17.1025C24.8303 17.32 25.0628 17.5263 25.2843 17.7382C24.8857 17.7047 24.4982 17.6545 24.1162 17.6043C24.0608 17.2252 24.0166 16.8405 23.9833 16.4446ZM25.8323 18.2511C26.2586 18.6303 26.6904 18.9815 27.1167 19.3105C26.325 19.8848 25.55 20.3587 24.8193 20.7267C24.5646 19.9461 24.3487 19.0596 24.1882 18.0894C24.7196 18.1619 25.2677 18.2121 25.8323 18.2455V18.2511ZM26.6074 18.2957C26.9063 18.3069 27.2108 18.3124 27.5153 18.3124C27.8197 18.3124 28.1242 18.3069 28.4232 18.2957C28.1187 18.5522 27.8197 18.7919 27.5153 19.0205C27.2108 18.7919 26.9118 18.5522 26.6074 18.2957ZM29.1927 18.2511C29.7573 18.2177 30.3054 18.1619 30.8368 18.095C30.6818 19.0596 30.4659 19.9461 30.2057 20.7323C29.475 20.3587 28.7 19.8848 27.9083 19.3161C28.3346 18.9871 28.7609 18.6358 29.1927 18.2567V18.2511ZM29.7407 17.7382C29.9621 17.5263 30.1891 17.3256 30.4106 17.1025C30.6265 16.8851 30.8368 16.6621 31.0417 16.4446C31.0084 16.8405 30.9642 17.2252 30.9088 17.6043C30.5268 17.6601 30.1393 17.7047 29.7407 17.7382ZM31.5565 15.8703C31.9329 15.441 32.2872 15.0117 32.6139 14.5824C33.1841 15.3797 33.6546 16.1603 34.02 16.8962C33.2394 17.1583 32.3592 17.3702 31.4015 17.5319C31.4735 16.9966 31.5233 16.4446 31.5565 15.8703ZM31.5953 15.0953C31.6063 14.7942 31.6119 14.4876 31.6119 14.1809C31.6119 13.8743 31.6063 13.5676 31.5953 13.2665C31.8499 13.5732 32.0879 13.8798 32.3149 14.1809C32.0879 14.4876 31.8444 14.7887 31.5953 15.0953ZM31.5565 12.4971C31.5233 11.9228 31.4679 11.3708 31.4015 10.8355C32.3647 10.9917 33.245 11.2091 34.02 11.4712C33.6546 12.2071 33.1841 12.9877 32.6139 13.785C32.2872 13.3557 31.9329 12.9264 31.5565 12.4971ZM27.5153 4.27304C28.4896 4.27304 29.3919 5.38816 30.0507 7.16678C29.2425 7.56823 28.3899 8.09791 27.5153 8.74468C26.6406 8.09791 25.7881 7.56823 24.9798 7.16678C25.6386 5.38816 26.5409 4.27304 27.5153 4.27304ZM20.5566 7.17794C21.2486 6.48098 22.6658 6.63153 24.3819 7.41769C24.0941 8.27633 23.8615 9.26322 23.6955 10.3393C22.627 10.5066 21.6472 10.7408 20.7946 11.0307C20.0141 9.30225 19.8646 7.87489 20.5566 7.17794ZM17.6779 14.1809C17.6779 13.1996 18.7851 12.2908 20.5511 11.6273C20.9496 12.4413 21.4756 13.3 22.1177 14.1809C21.4756 15.0619 20.9496 15.9205 20.5511 16.7345C18.7851 16.071 17.6779 15.1622 17.6779 14.1809ZM20.5566 21.1895C19.8646 20.4925 20.0141 19.0652 20.7946 17.3367C21.6472 17.6266 22.627 17.8608 23.6955 18.0281C23.8615 19.1042 24.0941 20.0911 24.3819 20.9497C22.6658 21.7359 21.2486 21.8864 20.5566 21.1895ZM27.5153 24.0888C26.5354 24.0888 25.6386 22.9681 24.9743 21.1839C25.7825 20.7824 26.6406 20.2472 27.5153 19.6004C28.3899 20.2472 29.248 20.7769 30.0563 21.1783C29.3975 22.9625 28.4951 24.0832 27.5153 24.0832V24.0888ZM34.4684 21.1895C33.7764 21.8864 32.3592 21.7359 30.6431 20.9497C30.9309 20.0911 31.1634 19.1042 31.3295 18.0281C32.398 17.8608 33.3778 17.6266 34.2304 17.3367C35.0109 19.0652 35.1604 20.4925 34.4684 21.1895ZM34.4739 16.7345C34.0753 15.9205 33.5494 15.0619 32.9073 14.1809C33.5494 13.3 34.0753 12.4413 34.4739 11.6273C36.2399 12.2908 37.3471 13.1996 37.3471 14.1809C37.3471 15.1622 36.2399 16.071 34.4739 16.7345Z"/>
    </mask>
    <path d="M37.8176 14.1809C37.8176 12.9933 36.6219 11.9395 34.6788 11.1924C35.5258 9.27994 35.6365 7.68532 34.8006 6.8434C33.9646 6.00148 32.3814 6.11299 30.4825 6.96606C29.7407 5.00902 28.6944 3.80469 27.5153 3.80469C26.3361 3.80469 25.2898 5.00902 24.548 6.96606C22.6492 6.11299 21.0659 6.00148 20.23 6.8434C19.394 7.68532 19.5048 9.27994 20.3518 11.1924C18.4087 11.9395 17.2129 12.9933 17.2129 14.1809C17.2129 15.3685 18.4087 16.4223 20.3518 17.1694C19.5048 19.0819 19.394 20.6765 20.23 21.5184C20.623 21.9143 21.1766 22.0983 21.8465 22.0983C22.6104 22.0983 23.5349 21.8474 24.548 21.3958C25.2898 23.3528 26.3361 24.5627 27.5153 24.5627C28.6944 24.5627 29.7407 23.3528 30.4825 21.3958C31.4901 21.8474 32.4146 22.0983 33.1785 22.0983C33.8539 22.0983 34.4075 21.9143 34.795 21.5184C35.6309 20.6765 35.5202 19.0819 34.6732 17.1694C36.6163 16.4223 37.8121 15.3685 37.8121 14.1809H37.8176ZM33.1896 6.73189C33.7321 6.73189 34.1695 6.87685 34.4684 7.17794C35.1604 7.87489 35.0109 9.30225 34.2304 11.0307C33.3778 10.7408 32.398 10.5066 31.3295 10.3393C31.1634 9.26322 30.9309 8.28191 30.6431 7.42326C31.6119 6.98279 32.4865 6.73189 33.1841 6.73189H33.1896ZM31.1468 14.1809C31.1468 14.6883 31.1247 15.1845 31.097 15.6752C30.7759 16.0432 30.4382 16.4056 30.0839 16.768C29.7296 17.1248 29.3643 17.465 28.9989 17.7939C28.5117 17.8218 28.019 17.8441 27.5153 17.8441C27.0115 17.8441 26.5188 17.8218 26.0316 17.7939C25.6663 17.465 25.3064 17.1304 24.9466 16.768C24.5923 16.4112 24.2546 16.0432 23.9335 15.6752C23.9058 15.1845 23.8837 14.6883 23.8837 14.1809C23.8837 13.6735 23.9058 13.1773 23.9335 12.6866C24.2546 12.3187 24.5923 11.9562 24.9466 11.5938C25.3009 11.237 25.6607 10.8969 26.0261 10.5679C26.5133 10.54 27.0115 10.5177 27.5153 10.5177C28.019 10.5177 28.5117 10.54 28.9989 10.5679C29.3643 10.8969 29.7241 11.2314 30.0839 11.5938C30.4382 11.9507 30.7759 12.3187 31.097 12.6866C31.1247 13.1773 31.1468 13.6735 31.1468 14.1809ZM30.4106 11.2649C30.1947 11.0474 29.9732 10.8355 29.7573 10.6292C30.1504 10.6627 30.5324 10.7073 30.9088 10.7631C30.9642 11.1422 31.0084 11.5269 31.0417 11.9228C30.8368 11.6998 30.6265 11.4823 30.4106 11.2649ZM29.1871 10.1107C28.7609 9.73157 28.3401 9.3803 27.9194 9.05134C28.7055 8.48263 29.4805 8.00313 30.2113 7.63514C30.4659 8.41572 30.6818 9.30225 30.8368 10.2668C30.3054 10.1943 29.7573 10.1442 29.1871 10.1107ZM28.4232 10.0717C28.1242 10.0605 27.8197 10.055 27.5153 10.055C27.2108 10.055 26.9118 10.0605 26.6184 10.0717C26.9174 9.82078 27.2163 9.57545 27.5208 9.34685C27.8197 9.57545 28.1242 9.8152 28.4232 10.0717ZM25.8379 10.1107C25.2677 10.1442 24.7196 10.1999 24.1882 10.2668C24.3432 9.29667 24.5591 8.41015 24.8193 7.62956C25.55 8.00313 26.325 8.47705 27.1167 9.04577C26.6904 9.37473 26.2641 9.73157 25.8379 10.1107ZM25.2732 10.6292C25.0518 10.8355 24.8359 11.0474 24.62 11.2649C24.4041 11.4823 24.1937 11.7053 23.9889 11.9228C24.0221 11.5269 24.0664 11.1422 24.1217 10.7631C24.4982 10.7073 24.8802 10.6627 25.2732 10.6292ZM23.474 12.4971C23.0976 12.9264 22.7433 13.3557 22.4167 13.785C21.852 12.9877 21.3814 12.2071 21.0105 11.4712C21.7911 11.2147 22.6713 10.9972 23.629 10.8355C23.5571 11.3708 23.5072 11.9228 23.474 12.4971ZM23.4353 13.2665C23.4242 13.5676 23.4187 13.8743 23.4187 14.1809C23.4187 14.4876 23.4242 14.7942 23.4353 15.0953C23.1806 14.7887 22.9426 14.482 22.7156 14.1809C22.9426 13.8743 23.1806 13.5732 23.4353 13.2665ZM23.474 15.8703C23.5072 16.4446 23.5626 16.9966 23.629 17.5319C22.6658 17.3757 21.7856 17.1583 21.0105 16.8962C21.3759 16.1603 21.8465 15.3797 22.4167 14.5824C22.7433 15.0117 23.0976 15.441 23.474 15.8703ZM23.9833 16.4446C24.1882 16.6676 24.3985 16.8851 24.6144 17.1025C24.8303 17.32 25.0628 17.5263 25.2843 17.7382C24.8857 17.7047 24.4982 17.6545 24.1162 17.6043C24.0608 17.2252 24.0166 16.8405 23.9833 16.4446ZM25.8323 18.2511C26.2586 18.6303 26.6904 18.9815 27.1167 19.3105C26.325 19.8848 25.55 20.3587 24.8193 20.7267C24.5646 19.9461 24.3487 19.0596 24.1882 18.0894C24.7196 18.1619 25.2677 18.2121 25.8323 18.2455V18.2511ZM26.6074 18.2957C26.9063 18.3069 27.2108 18.3124 27.5153 18.3124C27.8197 18.3124 28.1242 18.3069 28.4232 18.2957C28.1187 18.5522 27.8197 18.7919 27.5153 19.0205C27.2108 18.7919 26.9118 18.5522 26.6074 18.2957ZM29.1927 18.2511C29.7573 18.2177 30.3054 18.1619 30.8368 18.095C30.6818 19.0596 30.4659 19.9461 30.2057 20.7323C29.475 20.3587 28.7 19.8848 27.9083 19.3161C28.3346 18.9871 28.7609 18.6358 29.1927 18.2567V18.2511ZM29.7407 17.7382C29.9621 17.5263 30.1891 17.3256 30.4106 17.1025C30.6265 16.8851 30.8368 16.6621 31.0417 16.4446C31.0084 16.8405 30.9642 17.2252 30.9088 17.6043C30.5268 17.6601 30.1393 17.7047 29.7407 17.7382ZM31.5565 15.8703C31.9329 15.441 32.2872 15.0117 32.6139 14.5824C33.1841 15.3797 33.6546 16.1603 34.02 16.8962C33.2394 17.1583 32.3592 17.3702 31.4015 17.5319C31.4735 16.9966 31.5233 16.4446 31.5565 15.8703ZM31.5953 15.0953C31.6063 14.7942 31.6119 14.4876 31.6119 14.1809C31.6119 13.8743 31.6063 13.5676 31.5953 13.2665C31.8499 13.5732 32.0879 13.8798 32.3149 14.1809C32.0879 14.4876 31.8444 14.7887 31.5953 15.0953ZM31.5565 12.4971C31.5233 11.9228 31.4679 11.3708 31.4015 10.8355C32.3647 10.9917 33.245 11.2091 34.02 11.4712C33.6546 12.2071 33.1841 12.9877 32.6139 13.785C32.2872 13.3557 31.9329 12.9264 31.5565 12.4971ZM27.5153 4.27304C28.4896 4.27304 29.3919 5.38816 30.0507 7.16678C29.2425 7.56823 28.3899 8.09791 27.5153 8.74468C26.6406 8.09791 25.7881 7.56823 24.9798 7.16678C25.6386 5.38816 26.5409 4.27304 27.5153 4.27304ZM20.5566 7.17794C21.2486 6.48098 22.6658 6.63153 24.3819 7.41769C24.0941 8.27633 23.8615 9.26322 23.6955 10.3393C22.627 10.5066 21.6472 10.7408 20.7946 11.0307C20.0141 9.30225 19.8646 7.87489 20.5566 7.17794ZM17.6779 14.1809C17.6779 13.1996 18.7851 12.2908 20.5511 11.6273C20.9496 12.4413 21.4756 13.3 22.1177 14.1809C21.4756 15.0619 20.9496 15.9205 20.5511 16.7345C18.7851 16.071 17.6779 15.1622 17.6779 14.1809ZM20.5566 21.1895C19.8646 20.4925 20.0141 19.0652 20.7946 17.3367C21.6472 17.6266 22.627 17.8608 23.6955 18.0281C23.8615 19.1042 24.0941 20.0911 24.3819 20.9497C22.6658 21.7359 21.2486 21.8864 20.5566 21.1895ZM27.5153 24.0888C26.5354 24.0888 25.6386 22.9681 24.9743 21.1839C25.7825 20.7824 26.6406 20.2472 27.5153 19.6004C28.3899 20.2472 29.248 20.7769 30.0563 21.1783C29.3975 22.9625 28.4951 24.0832 27.5153 24.0832V24.0888ZM34.4684 21.1895C33.7764 21.8864 32.3592 21.7359 30.6431 20.9497C30.9309 20.0911 31.1634 19.1042 31.3295 18.0281C32.398 17.8608 33.3778 17.6266 34.2304 17.3367C35.0109 19.0652 35.1604 20.4925 34.4684 21.1895ZM34.4739 16.7345C34.0753 15.9205 33.5494 15.0619 32.9073 14.1809C33.5494 13.3 34.0753 12.4413 34.4739 11.6273C36.2399 12.2908 37.3471 13.1996 37.3471 14.1809C37.3471 15.1622 36.2399 16.071 34.4739 16.7345Z" fill="#0C193A"/>
    <path d="M37.8176 14.1809C37.8176 12.9933 36.6219 11.9395 34.6788 11.1924C35.5258 9.27994 35.6365 7.68532 34.8006 6.8434C33.9646 6.00148 32.3814 6.11299 30.4825 6.96606C29.7407 5.00902 28.6944 3.80469 27.5153 3.80469C26.3361 3.80469 25.2898 5.00902 24.548 6.96606C22.6492 6.11299 21.0659 6.00148 20.23 6.8434C19.394 7.68532 19.5048 9.27994 20.3518 11.1924C18.4087 11.9395 17.2129 12.9933 17.2129 14.1809C17.2129 15.3685 18.4087 16.4223 20.3518 17.1694C19.5048 19.0819 19.394 20.6765 20.23 21.5184C20.623 21.9143 21.1766 22.0983 21.8465 22.0983C22.6104 22.0983 23.5349 21.8474 24.548 21.3958C25.2898 23.3528 26.3361 24.5627 27.5153 24.5627C28.6944 24.5627 29.7407 23.3528 30.4825 21.3958C31.4901 21.8474 32.4146 22.0983 33.1785 22.0983C33.8539 22.0983 34.4075 21.9143 34.795 21.5184C35.6309 20.6765 35.5202 19.0819 34.6732 17.1694C36.6163 16.4223 37.8121 15.3685 37.8121 14.1809H37.8176ZM33.1896 6.73189C33.7321 6.73189 34.1695 6.87685 34.4684 7.17794C35.1604 7.87489 35.0109 9.30225 34.2304 11.0307C33.3778 10.7408 32.398 10.5066 31.3295 10.3393C31.1634 9.26322 30.9309 8.28191 30.6431 7.42326C31.6119 6.98279 32.4865 6.73189 33.1841 6.73189H33.1896ZM31.1468 14.1809C31.1468 14.6883 31.1247 15.1845 31.097 15.6752C30.7759 16.0432 30.4382 16.4056 30.0839 16.768C29.7296 17.1248 29.3643 17.465 28.9989 17.7939C28.5117 17.8218 28.019 17.8441 27.5153 17.8441C27.0115 17.8441 26.5188 17.8218 26.0316 17.7939C25.6663 17.465 25.3064 17.1304 24.9466 16.768C24.5923 16.4112 24.2546 16.0432 23.9335 15.6752C23.9058 15.1845 23.8837 14.6883 23.8837 14.1809C23.8837 13.6735 23.9058 13.1773 23.9335 12.6866C24.2546 12.3187 24.5923 11.9562 24.9466 11.5938C25.3009 11.237 25.6607 10.8969 26.0261 10.5679C26.5133 10.54 27.0115 10.5177 27.5153 10.5177C28.019 10.5177 28.5117 10.54 28.9989 10.5679C29.3643 10.8969 29.7241 11.2314 30.0839 11.5938C30.4382 11.9507 30.7759 12.3187 31.097 12.6866C31.1247 13.1773 31.1468 13.6735 31.1468 14.1809ZM30.4106 11.2649C30.1947 11.0474 29.9732 10.8355 29.7573 10.6292C30.1504 10.6627 30.5324 10.7073 30.9088 10.7631C30.9642 11.1422 31.0084 11.5269 31.0417 11.9228C30.8368 11.6998 30.6265 11.4823 30.4106 11.2649ZM29.1871 10.1107C28.7609 9.73157 28.3401 9.3803 27.9194 9.05134C28.7055 8.48263 29.4805 8.00313 30.2113 7.63514C30.4659 8.41572 30.6818 9.30225 30.8368 10.2668C30.3054 10.1943 29.7573 10.1442 29.1871 10.1107ZM28.4232 10.0717C28.1242 10.0605 27.8197 10.055 27.5153 10.055C27.2108 10.055 26.9118 10.0605 26.6184 10.0717C26.9174 9.82078 27.2163 9.57545 27.5208 9.34685C27.8197 9.57545 28.1242 9.8152 28.4232 10.0717ZM25.8379 10.1107C25.2677 10.1442 24.7196 10.1999 24.1882 10.2668C24.3432 9.29667 24.5591 8.41015 24.8193 7.62956C25.55 8.00313 26.325 8.47705 27.1167 9.04577C26.6904 9.37473 26.2641 9.73157 25.8379 10.1107ZM25.2732 10.6292C25.0518 10.8355 24.8359 11.0474 24.62 11.2649C24.4041 11.4823 24.1937 11.7053 23.9889 11.9228C24.0221 11.5269 24.0664 11.1422 24.1217 10.7631C24.4982 10.7073 24.8802 10.6627 25.2732 10.6292ZM23.474 12.4971C23.0976 12.9264 22.7433 13.3557 22.4167 13.785C21.852 12.9877 21.3814 12.2071 21.0105 11.4712C21.7911 11.2147 22.6713 10.9972 23.629 10.8355C23.5571 11.3708 23.5072 11.9228 23.474 12.4971ZM23.4353 13.2665C23.4242 13.5676 23.4187 13.8743 23.4187 14.1809C23.4187 14.4876 23.4242 14.7942 23.4353 15.0953C23.1806 14.7887 22.9426 14.482 22.7156 14.1809C22.9426 13.8743 23.1806 13.5732 23.4353 13.2665ZM23.474 15.8703C23.5072 16.4446 23.5626 16.9966 23.629 17.5319C22.6658 17.3757 21.7856 17.1583 21.0105 16.8962C21.3759 16.1603 21.8465 15.3797 22.4167 14.5824C22.7433 15.0117 23.0976 15.441 23.474 15.8703ZM23.9833 16.4446C24.1882 16.6676 24.3985 16.8851 24.6144 17.1025C24.8303 17.32 25.0628 17.5263 25.2843 17.7382C24.8857 17.7047 24.4982 17.6545 24.1162 17.6043C24.0608 17.2252 24.0166 16.8405 23.9833 16.4446ZM25.8323 18.2511C26.2586 18.6303 26.6904 18.9815 27.1167 19.3105C26.325 19.8848 25.55 20.3587 24.8193 20.7267C24.5646 19.9461 24.3487 19.0596 24.1882 18.0894C24.7196 18.1619 25.2677 18.2121 25.8323 18.2455V18.2511ZM26.6074 18.2957C26.9063 18.3069 27.2108 18.3124 27.5153 18.3124C27.8197 18.3124 28.1242 18.3069 28.4232 18.2957C28.1187 18.5522 27.8197 18.7919 27.5153 19.0205C27.2108 18.7919 26.9118 18.5522 26.6074 18.2957ZM29.1927 18.2511C29.7573 18.2177 30.3054 18.1619 30.8368 18.095C30.6818 19.0596 30.4659 19.9461 30.2057 20.7323C29.475 20.3587 28.7 19.8848 27.9083 19.3161C28.3346 18.9871 28.7609 18.6358 29.1927 18.2567V18.2511ZM29.7407 17.7382C29.9621 17.5263 30.1891 17.3256 30.4106 17.1025C30.6265 16.8851 30.8368 16.6621 31.0417 16.4446C31.0084 16.8405 30.9642 17.2252 30.9088 17.6043C30.5268 17.6601 30.1393 17.7047 29.7407 17.7382ZM31.5565 15.8703C31.9329 15.441 32.2872 15.0117 32.6139 14.5824C33.1841 15.3797 33.6546 16.1603 34.02 16.8962C33.2394 17.1583 32.3592 17.3702 31.4015 17.5319C31.4735 16.9966 31.5233 16.4446 31.5565 15.8703ZM31.5953 15.0953C31.6063 14.7942 31.6119 14.4876 31.6119 14.1809C31.6119 13.8743 31.6063 13.5676 31.5953 13.2665C31.8499 13.5732 32.0879 13.8798 32.3149 14.1809C32.0879 14.4876 31.8444 14.7887 31.5953 15.0953ZM31.5565 12.4971C31.5233 11.9228 31.4679 11.3708 31.4015 10.8355C32.3647 10.9917 33.245 11.2091 34.02 11.4712C33.6546 12.2071 33.1841 12.9877 32.6139 13.785C32.2872 13.3557 31.9329 12.9264 31.5565 12.4971ZM27.5153 4.27304C28.4896 4.27304 29.3919 5.38816 30.0507 7.16678C29.2425 7.56823 28.3899 8.09791 27.5153 8.74468C26.6406 8.09791 25.7881 7.56823 24.9798 7.16678C25.6386 5.38816 26.5409 4.27304 27.5153 4.27304ZM20.5566 7.17794C21.2486 6.48098 22.6658 6.63153 24.3819 7.41769C24.0941 8.27633 23.8615 9.26322 23.6955 10.3393C22.627 10.5066 21.6472 10.7408 20.7946 11.0307C20.0141 9.30225 19.8646 7.87489 20.5566 7.17794ZM17.6779 14.1809C17.6779 13.1996 18.7851 12.2908 20.5511 11.6273C20.9496 12.4413 21.4756 13.3 22.1177 14.1809C21.4756 15.0619 20.9496 15.9205 20.5511 16.7345C18.7851 16.071 17.6779 15.1622 17.6779 14.1809ZM20.5566 21.1895C19.8646 20.4925 20.0141 19.0652 20.7946 17.3367C21.6472 17.6266 22.627 17.8608 23.6955 18.0281C23.8615 19.1042 24.0941 20.0911 24.3819 20.9497C22.6658 21.7359 21.2486 21.8864 20.5566 21.1895ZM27.5153 24.0888C26.5354 24.0888 25.6386 22.9681 24.9743 21.1839C25.7825 20.7824 26.6406 20.2472 27.5153 19.6004C28.3899 20.2472 29.248 20.7769 30.0563 21.1783C29.3975 22.9625 28.4951 24.0832 27.5153 24.0832V24.0888ZM34.4684 21.1895C33.7764 21.8864 32.3592 21.7359 30.6431 20.9497C30.9309 20.0911 31.1634 19.1042 31.3295 18.0281C32.398 17.8608 33.3778 17.6266 34.2304 17.3367C35.0109 19.0652 35.1604 20.4925 34.4684 21.1895ZM34.4739 16.7345C34.0753 15.9205 33.5494 15.0619 32.9073 14.1809C33.5494 13.3 34.0753 12.4413 34.4739 11.6273C36.2399 12.2908 37.3471 13.1996 37.3471 14.1809C37.3471 15.1622 36.2399 16.071 34.4739 16.7345Z" stroke="#0C193A" stroke-width="0.4" mask="url(#path-9-outside-1_7392_79040)"/>
</svg>