<svg viewBox="0 0 295 28" fill="none" xmlns="http://www.w3.org/2000/svg">
<g clip-path="url(#clip0_7227_2555)">
<path d="M65.2461 7.19768H68.9306V9.85997C70.1155 8.18915 71.8004 6.86719 74.411 6.86719C78.1881 6.86719 81.8726 9.82325 81.8726 15.1478V15.2029C81.8726 20.4908 78.2066 23.4836 74.411 23.4836C71.7263 23.4836 70.06 22.1616 68.9306 20.6744V28.0003H65.2461V7.19768ZM78.1511 15.2029V15.1478C78.1511 12.0633 76.0404 10.0436 73.5408 10.0436C71.0413 10.0436 68.838 12.1 68.838 15.1478V15.2029C68.838 18.2508 71.0413 20.3072 73.5408 20.3072C76.0404 20.3072 78.1511 18.3426 78.1511 15.2029Z" fill="#0C193A"/>
<path d="M85.0938 7.19733H88.7782V10.796C89.7781 8.40914 91.6481 6.77504 94.4809 6.90356V10.7777H94.2587C91.0186 10.7777 88.7782 12.8708 88.7782 17.0937V23.1711H85.0938V7.19733Z" fill="#0C193A"/>
<path d="M94.9062 15.2764V15.2213C94.9062 10.6495 98.5722 6.86719 103.497 6.86719C108.422 6.86719 112.07 10.5944 112.07 15.1478V15.2029C112.07 19.738 108.404 23.5203 103.442 23.5203C98.4797 23.5203 94.9062 19.7931 94.9062 15.258M108.385 15.2764V15.2213C108.385 12.4121 106.349 10.0803 103.442 10.0803C100.535 10.0803 98.5907 12.3754 98.5907 15.1662V15.2213C98.5907 17.9937 100.627 20.3255 103.497 20.3255C106.367 20.3255 108.367 18.0305 108.367 15.2764" fill="#0C193A"/>
<path d="M115.439 10.337H113.402V7.28912H115.439V6.11403C115.439 4.36977 115.902 3.02944 116.754 2.18485C117.605 1.34026 118.79 0.917969 120.383 0.917969C121.401 0.917969 122.401 1.04649 123.363 1.34026V4.42485C122.623 4.18617 121.993 4.03928 121.197 4.03928C119.79 4.03928 119.068 4.79207 119.068 6.46289V7.3442H123.345V10.3737H119.142V23.1894H115.439V10.3737V10.337ZM126.289 7.19731H129.973V23.1711H126.289V7.19731Z" fill="#0C193A"/>
<path d="M135.564 18.7456V10.3365H133.527V7.19679H135.564V2.80859H139.248V7.19679H143.581V10.3365H139.248V18.1581C139.248 19.5719 139.989 20.1594 141.23 20.1594C142.026 20.1594 142.803 19.9758 143.507 19.6086V22.6014C142.6 23.1155 141.581 23.4276 140.174 23.4276C137.453 23.4276 135.545 22.2525 135.545 18.7456" fill="#0C193A"/>
<path d="M146.617 21.0772L148.265 18.5985C150.042 19.9021 151.894 20.5631 153.542 20.5631C155.19 20.5631 156.041 19.9021 156.041 18.8372V18.7821C156.041 17.5519 154.338 17.1113 152.449 16.5421C150.079 15.8811 147.413 14.908 147.413 11.8601V11.805C147.413 8.77552 149.95 6.93945 153.153 6.93945C155.171 6.93945 157.356 7.63716 159.059 8.75716L157.597 11.3644C156.041 10.428 154.393 9.8588 153.06 9.8588C151.635 9.8588 150.802 10.5198 150.802 11.4378V11.4929C150.802 12.668 152.542 13.1637 154.431 13.7513C156.782 14.4673 159.43 15.5322 159.43 18.4149V18.4699C159.43 21.8299 156.8 23.4824 153.449 23.4824C151.172 23.4824 148.635 22.6745 146.617 21.0955" fill="#0C193A"/>
<path d="M161.707 15.2764V15.2213C161.707 10.6495 165.373 6.86719 170.298 6.86719C175.223 6.86719 178.87 10.5944 178.87 15.1478V15.2029C178.87 19.738 175.204 23.5203 170.242 23.5203C165.28 23.5203 161.707 19.7931 161.707 15.258M175.186 15.2764V15.2213C175.186 12.4121 173.149 10.0803 170.242 10.0803C167.336 10.0803 165.392 12.3754 165.392 15.1662V15.2213C165.392 17.9937 167.428 20.3255 170.298 20.3255C173.168 20.3255 175.167 18.0305 175.167 15.2764" fill="#0C193A"/>
<path d="M185.313 1.08203H181.629V23.1515H185.313V1.08203Z" fill="#0C193A"/>
<path d="M188 7.19727H191.962L196.295 18.9297L200.646 7.19727H204.534L197.943 23.2812H194.61L188 7.19727Z" fill="#0C193A"/>
<path d="M128.122 -0.0127241L125.32 2.76562L128.122 5.54397L130.924 2.76563L128.122 -0.0127241Z" fill="#0C193A"/>
<path d="M48.0078 15.2381H51.6368L53.0069 18.9286L57.3764 7.17773H61.2461L54.6547 23.28H51.3405L48.0078 15.2381Z" fill="#0C193A"/>
<path d="M53.0062 18.9297L54.654 23.2812H51.3398L53.0062 18.9297Z" fill="#0C193A"/>
<path d="M0 18.7461C0 15.79 1.75893 13.752 4.27697 13.752C6.79502 13.752 8.55394 15.79 8.55394 18.7461C8.55394 21.7021 6.79502 23.7218 4.27697 23.7218C1.75893 23.7218 0 21.6838 0 18.7461ZM7.42453 18.7461C7.42453 16.5795 6.29511 14.7618 4.27697 14.7618C2.25883 14.7618 1.12942 16.5795 1.12942 18.7461C1.12942 20.9126 2.25883 22.6936 4.27697 22.6936C6.29511 22.6936 7.42453 20.8942 7.42453 18.7461Z" fill="#0C193A"/>
<path d="M14.6639 14.8537H12.6087V21.0046C12.6087 22.2164 13.3123 22.5652 14.0714 22.5652C14.3677 22.5652 14.5713 22.5285 14.738 22.4734L14.9787 23.4833C14.7565 23.5567 14.4417 23.6485 13.9789 23.6485C12.7384 23.6485 11.4793 22.8223 11.4793 21.2433V14.8354H10.0352V13.8623H11.4793V11.5488H12.6087V13.8623H14.6639V14.8354V14.8537Z" fill="#0C193A"/>
<path d="M18.3677 23.5204H17.2383V10.668H18.3677V15.3867H18.4603C18.9231 14.3952 19.8674 13.7526 21.3486 13.7526C23.3297 13.7526 24.6628 14.9827 24.6628 17.2778V23.5204H23.5334V17.3512C23.5334 15.7722 22.5706 14.7808 21.0709 14.7808C19.5712 14.7808 18.3677 15.809 18.3677 17.4981V23.5204Z" fill="#0C193A"/>
<path d="M26.957 18.7644C26.957 15.8451 28.6974 13.752 31.2155 13.752C33.3262 13.752 35.3258 15.2575 35.3258 18.489V19.0398H28.0864C28.142 21.2615 29.401 22.712 31.3821 22.712C32.7708 22.712 33.641 21.9959 34.0113 21.1329L35.0851 21.4818C34.6408 22.6936 33.3262 23.7402 31.3821 23.7402C28.6604 23.7402 26.957 21.7021 26.957 18.7828V18.7644ZM34.1779 18.0483C34.1779 16.1939 32.9559 14.7618 31.2155 14.7618C29.4751 14.7618 28.2161 16.249 28.105 18.0483H34.1779Z" fill="#0C193A"/>
<path d="M37.624 13.8813H38.7164V15.3685H38.7904C39.1792 14.3954 40.2346 13.7344 41.4566 13.7344C41.6417 13.7344 41.901 13.7344 42.0491 13.7527V14.8911C41.9565 14.8911 41.6603 14.836 41.364 14.836C39.8458 14.836 38.7349 15.8642 38.7349 17.2963V23.5206H37.6055V13.8813H37.624Z" fill="#0C193A"/>
<path d="M208.164 18.748C208.164 15.847 209.904 13.7539 212.441 13.7539C214.385 13.7539 215.903 14.9657 216.163 16.7467H215.015C214.774 15.6634 213.83 14.7637 212.46 14.7637C210.59 14.7637 209.293 16.3795 209.293 18.7113C209.293 21.0431 210.553 22.6955 212.46 22.6955C213.756 22.6955 214.774 21.9428 215.033 20.7126H216.181C215.922 22.4569 214.496 23.7237 212.478 23.7237C209.867 23.7237 208.183 21.6123 208.183 18.748H208.164Z" fill="#0C193A"/>
<path d="M217.902 18.748C217.902 15.7919 219.661 13.7539 222.179 13.7539C224.697 13.7539 226.456 15.7919 226.456 18.748C226.456 21.7041 224.697 23.7237 222.179 23.7237C219.661 23.7237 217.902 21.6857 217.902 18.748ZM225.327 18.748C225.327 16.5814 224.197 14.7637 222.179 14.7637C220.161 14.7637 219.032 16.5814 219.032 18.748C219.032 20.9146 220.161 22.6955 222.179 22.6955C224.197 22.6955 225.327 20.8962 225.327 18.748Z" fill="#0C193A"/>
<path d="M228.734 13.8824H229.827V15.3696H229.919C230.308 14.3782 231.252 13.7539 232.53 13.7539C233.863 13.7539 234.733 14.4149 235.159 15.4982H235.233C235.678 14.4333 236.696 13.7539 238.103 13.7539C239.899 13.7539 241.028 14.9106 241.028 17.0588V23.5218H239.899V17.0588C239.899 15.5349 239.047 14.7821 237.77 14.7821C236.289 14.7821 235.455 15.7919 235.455 17.1873V23.5401H234.307V16.9854C234.307 15.6818 233.53 14.8005 232.215 14.8005C230.901 14.8005 229.864 15.8654 229.864 17.371V23.5401H228.734V13.9008V13.8824Z" fill="#0C193A"/>
<path d="M243.844 13.8824H244.936V15.7185H245.066C245.473 14.8555 246.251 13.7539 248.047 13.7539C250.435 13.7539 252.064 15.7552 252.064 18.7296C252.064 21.7041 250.435 23.7237 248.065 23.7237C246.306 23.7237 245.473 22.6221 245.084 21.7408H244.992V27.1388H243.862V13.8824H243.844ZM247.917 22.6955C249.843 22.6955 250.917 20.9513 250.917 18.7113C250.917 16.4713 249.861 14.7637 247.917 14.7637C245.973 14.7637 244.955 16.3978 244.955 18.7113C244.955 21.0247 246.047 22.6955 247.917 22.6955Z" fill="#0C193A"/>
<path d="M253.857 20.8216C253.857 18.9121 255.394 18.3062 257.597 18.0308C259.227 17.8288 260.134 17.8104 260.134 17.0944V16.874C260.134 15.5521 259.319 14.7442 257.838 14.7442C256.357 14.7442 255.561 15.4603 255.19 16.2865L254.117 15.9009C254.783 14.3219 256.301 13.7344 257.801 13.7344C259.301 13.7344 261.245 14.377 261.245 16.9658V23.5022H260.115V21.9783H260.041C259.634 22.8229 258.653 23.7226 257.023 23.7226C255.265 23.7226 253.82 22.676 253.82 20.8032L253.857 20.8216ZM260.134 19.8301V18.4347C259.801 18.7468 258.394 18.9304 257.597 19.0222C255.95 19.2242 254.987 19.7199 254.987 20.8767C254.987 22.0334 255.931 22.7127 257.209 22.7127C259.005 22.7127 260.134 21.4091 260.134 19.8118V19.8301Z" fill="#0C193A"/>
<path d="M265.208 23.5218H264.078V13.8824H265.171V15.388H265.263C265.726 14.3965 266.707 13.7539 268.114 13.7539C270.077 13.7539 271.41 14.9841 271.41 17.2792V23.5218H270.281V17.3526C270.281 15.7736 269.318 14.7821 267.818 14.7821C266.318 14.7821 265.171 15.8103 265.171 17.4995V23.5218H265.208Z" fill="#0C193A"/>
<path d="M273.965 11.4211C273.965 10.9805 274.354 10.6133 274.817 10.6133C275.279 10.6133 275.668 10.9805 275.668 11.4211C275.668 11.8618 275.279 12.229 274.817 12.229C274.354 12.229 273.965 11.8618 273.965 11.4211ZM274.224 13.8815H275.353V23.5208H274.224V13.8815Z" fill="#0C193A"/>
<path d="M277.668 18.7664C277.668 15.847 279.408 13.7539 281.926 13.7539C284.037 13.7539 286.037 15.2595 286.037 18.491V19.0418H278.797C278.853 21.2634 280.112 22.7139 282.093 22.7139C283.482 22.7139 284.352 21.9978 284.722 21.1349L285.796 21.4837C285.352 22.6955 284.037 23.7421 282.093 23.7421C279.371 23.7421 277.668 21.7041 277.668 18.7847V18.7664ZM284.889 18.0503C284.889 16.1959 283.667 14.7637 281.926 14.7637C280.186 14.7637 278.927 16.251 278.816 18.0503H284.889Z" fill="#0C193A"/>
<path d="M293.832 16.2869C293.536 15.4239 292.888 14.7446 291.573 14.7446C290.259 14.7446 289.314 15.4239 289.314 16.4154C289.314 17.2416 289.87 17.7374 291.092 18.0312L292.554 18.38C294.184 18.7839 294.998 19.6285 294.998 20.9138C294.998 22.5479 293.536 23.723 291.388 23.723C289.481 23.723 288.203 22.8416 287.852 21.2443L288.925 20.9872C289.203 22.1256 290.018 22.7315 291.351 22.7315C292.851 22.7315 293.813 21.9787 293.813 20.9872C293.813 20.2161 293.295 19.6653 292.24 19.4266L290.647 19.041C288.962 18.6371 288.166 17.7557 288.166 16.4705C288.166 14.8915 289.592 13.7715 291.555 13.7715C293.332 13.7715 294.369 14.6161 294.85 16.0115L293.813 16.3053L293.832 16.2869Z" fill="#0C193A"/>
</g>
<defs>
<clipPath id="clip0_7227_2555">
<rect width="295" height="28" fill="white"/>
</clipPath>
</defs>
</svg>
