<svg viewBox="0 0 450 51" fill="none" xmlns="http://www.w3.org/2000/svg">
<path d="M31.3438 12.9797H38.0433V17.7718C40.1979 14.7643 43.2615 12.3848 48.0084 12.3848C54.8763 12.3848 61.5758 17.7057 61.5758 27.2899V27.3891C61.5758 36.9073 54.9099 42.2943 48.0084 42.2943C43.1268 42.2943 40.0969 39.9147 38.0433 37.2378V50.4244H31.3438V12.9797ZM54.8089 27.3891V27.2899C54.8089 21.7377 50.971 18.1023 46.4261 18.1023C41.8812 18.1023 37.8749 21.8038 37.8749 27.2899V27.3891C37.8749 32.8753 41.8812 36.5768 46.4261 36.5768C50.971 36.5768 54.8089 33.0405 54.8089 27.3891Z" fill="#0C193A"/>
<path d="M67.4336 12.9771H74.1331V19.4547C75.9511 15.1583 79.3513 12.2169 84.5022 12.4483V19.4217H84.0983C78.2067 19.4217 74.1331 23.1893 74.1331 30.7906V41.7299H67.4336V12.9771Z" fill="#0C193A"/>
<path d="M85.2734 27.5213V27.4221C85.2734 19.1929 91.9393 12.3848 100.894 12.3848C109.85 12.3848 116.482 19.0938 116.482 27.2899V27.3891C116.482 35.5522 109.816 42.3604 100.793 42.3604C91.771 42.3604 85.2734 35.6514 85.2734 27.4882M109.782 27.5213V27.4221C109.782 22.3656 106.079 18.1684 100.793 18.1684C95.5079 18.1684 91.973 22.2995 91.973 27.323V27.4221C91.973 32.4126 95.6762 36.6098 100.894 36.6098C106.113 36.6098 109.749 32.4787 109.749 27.5213" fill="#0C193A"/>
<path d="M122.61 18.63H118.906V13.1438H122.61V11.0287C122.61 7.88903 123.451 5.47644 125 3.95617C126.548 2.43591 128.703 1.67578 131.598 1.67578C133.45 1.67578 135.268 1.90713 137.019 2.43591V7.98817C135.672 7.55854 134.527 7.29414 133.08 7.29414C130.521 7.29414 129.208 8.64916 129.208 11.6566V13.243H136.985V18.6961H129.343V41.7644H122.61V18.6961V18.63ZM142.338 12.9786H149.037V41.7314H142.338V12.9786Z" fill="#0C193A"/>
<path d="M159.203 33.7648V18.6283H155.5V12.9769H159.203V5.07812H165.903V12.9769H173.781V18.6283H165.903V32.7072C165.903 35.252 167.249 36.3096 169.505 36.3096C170.953 36.3096 172.367 35.9791 173.646 35.3181V40.7051C171.996 41.6305 170.145 42.1924 167.586 42.1924C162.637 42.1924 159.17 40.0772 159.17 33.7648" fill="#0C193A"/>
<path d="M179.301 37.9615L182.297 33.4999C185.529 35.8464 188.896 37.0362 191.892 37.0362C194.888 37.0362 196.437 35.8464 196.437 33.9295V33.8304C196.437 31.6161 193.339 30.8229 189.906 29.7984C185.596 28.6086 180.748 26.857 180.748 21.3709V21.2717C180.748 15.8186 185.361 12.5137 191.185 12.5137C194.854 12.5137 198.827 13.7695 201.924 15.7855L199.265 20.4785C196.437 18.793 193.44 17.7685 191.017 17.7685C188.424 17.7685 186.909 18.9583 186.909 20.6107V20.7099C186.909 22.825 190.074 23.7173 193.508 24.7749C197.783 26.0638 202.598 27.9807 202.598 33.1694V33.2686C202.598 39.3166 197.817 42.291 191.724 42.291C187.583 42.291 182.97 40.8368 179.301 37.9946" fill="#0C193A"/>
<path d="M206.742 27.5213V27.4221C206.742 19.1929 213.408 12.3848 222.363 12.3848C231.318 12.3848 237.951 19.0938 237.951 27.2899V27.3891C237.951 35.5522 231.285 42.3604 222.262 42.3604C213.24 42.3604 206.742 35.6514 206.742 27.4882M231.251 27.5213V27.4221C231.251 22.3656 227.548 18.1684 222.262 18.1684C216.977 18.1684 213.442 22.2995 213.442 27.323V27.4221C213.442 32.4126 217.145 36.6098 222.363 36.6098C227.581 36.6098 231.217 32.4787 231.217 27.5213" fill="#0C193A"/>
<path d="M249.66 1.9707H242.961V41.6958H249.66V1.9707Z" fill="#0C193A"/>
<path d="M254.551 12.9766H261.755L269.633 34.095L277.545 12.9766H284.615L272.629 41.9276H266.57L254.551 12.9766Z" fill="#0C193A"/>
<path d="M145.672 0.000924821L140.578 5.00195L145.672 10.003L150.767 5.00195L145.672 0.000924821Z" fill="#0C193A"/>
<path d="M0 27.45H6.59853L9.08981 34.0929L17.035 12.9414H24.0712L12.0861 41.9255H6.05987L0 27.45Z" fill="#0C193A"/>
<path d="M9.09244 34.0957L12.0887 41.9284H6.0625L9.09244 34.0957Z" fill="#0C193A"/>
<path d="M291.219 33.7706C291.219 28.5489 294.383 24.7812 298.996 24.7812C302.531 24.7812 305.291 26.9625 305.762 30.1683H303.675C303.237 28.2184 301.521 26.599 299.029 26.599C295.629 26.599 293.272 29.5073 293.272 33.7045C293.272 37.9018 295.562 40.8762 299.029 40.8762C301.386 40.8762 303.238 39.5212 303.709 37.3069H305.796C305.325 40.4466 302.733 42.727 299.063 42.727C294.316 42.727 291.252 38.9263 291.252 33.7706H291.219Z" fill="#0C193A"/>
<path d="M308.93 33.7706C308.93 28.4497 312.128 24.7812 316.707 24.7812C321.285 24.7812 324.483 28.4497 324.483 33.7706C324.483 39.0915 321.285 42.727 316.707 42.727C312.128 42.727 308.93 39.0585 308.93 33.7706ZM322.43 33.7706C322.43 29.8708 320.376 26.599 316.707 26.599C313.037 26.599 310.983 29.8708 310.983 33.7706C310.983 37.6704 313.037 40.8762 316.707 40.8762C320.376 40.8762 322.43 37.6374 322.43 33.7706Z" fill="#0C193A"/>
<path d="M328.621 25.0126H330.607V27.6896H330.776C331.483 25.9049 333.2 24.7812 335.523 24.7812C337.947 24.7812 339.529 25.971 340.303 27.9209H340.438C341.246 26.0041 343.097 24.7812 345.656 24.7812C348.922 24.7812 350.975 26.8633 350.975 30.7301V42.3634H348.922V30.7301C348.922 27.987 347.373 26.632 345.05 26.632C342.357 26.632 340.842 28.4497 340.842 30.9614V42.3965H338.755V30.5979C338.755 28.2514 337.341 26.6651 334.95 26.6651C332.56 26.6651 330.675 28.5819 330.675 31.2919V42.3965H328.621V25.0456V25.0126Z" fill="#0C193A"/>
<path d="M356.094 25.0126H358.08V28.3175H358.316C359.056 26.7642 360.47 24.7812 363.736 24.7812C368.079 24.7812 371.041 28.3836 371.041 33.7376C371.041 39.0915 368.079 42.727 363.77 42.727C360.571 42.727 359.056 40.744 358.349 39.1576H358.181V48.8741H356.127V25.0126H356.094ZM363.5 40.8762C367.002 40.8762 368.954 37.7365 368.954 33.7045C368.954 29.6725 367.035 26.599 363.5 26.599C359.965 26.599 358.114 29.5403 358.114 33.7045C358.114 37.8687 360.1 40.8762 363.5 40.8762Z" fill="#0C193A"/>
<path d="M374.302 37.5031C374.302 34.066 377.096 32.9753 381.102 32.4796C384.065 32.1161 385.714 32.083 385.714 30.7941V30.3975C385.714 28.018 384.233 26.5638 381.54 26.5638C378.847 26.5638 377.399 27.8527 376.726 29.3399L374.773 28.6459C375.985 25.8037 378.746 24.7461 381.473 24.7461C384.2 24.7461 387.734 25.9028 387.734 30.5627V42.3283H385.681V39.5852H385.546C384.805 41.1054 383.021 42.7248 380.059 42.7248C376.86 42.7248 374.234 40.841 374.234 37.47L374.302 37.5031ZM385.714 35.7184V33.2067C385.108 33.7685 382.55 34.099 381.102 34.2643C378.106 34.6278 376.355 35.5201 376.355 37.6022C376.355 39.6843 378.072 40.9071 380.395 40.9071C383.661 40.9071 385.714 38.5606 385.714 35.6854V35.7184Z" fill="#0C193A"/>
<path d="M394.94 42.3634H392.887V25.0126H394.873V27.7226H395.041C395.883 25.938 397.667 24.7812 400.226 24.7812C403.794 24.7812 406.218 26.9955 406.218 31.1267V42.3634H404.165V31.2589C404.165 28.4167 402.414 26.632 399.687 26.632C396.96 26.632 394.873 28.4828 394.873 31.5233V42.3634H394.94Z" fill="#0C193A"/>
<path d="M410.863 20.5831C410.863 19.7899 411.57 19.1289 412.412 19.1289C413.254 19.1289 413.961 19.7899 413.961 20.5831C413.961 21.3762 413.254 22.0372 412.412 22.0372C411.57 22.0372 410.863 21.3762 410.863 20.5831ZM411.335 25.0117H413.388V42.3625H411.335V25.0117Z" fill="#0C193A"/>
<path d="M417.598 33.8037C417.598 28.5489 420.762 24.7812 425.341 24.7812C429.179 24.7812 432.815 27.4913 432.815 33.3079V34.2994H419.651C419.752 38.2984 422.042 40.9093 425.644 40.9093C428.169 40.9093 429.751 39.6203 430.424 38.067L432.377 38.695C431.569 40.8762 429.179 42.76 425.644 42.76C420.695 42.76 417.598 39.0915 417.598 33.8367V33.8037ZM430.727 32.5148C430.727 29.1768 428.505 26.599 425.341 26.599C422.176 26.599 419.887 29.2759 419.685 32.5148H430.727Z" fill="#0C193A"/>
<path d="M446.987 29.3402C446.449 27.7869 445.27 26.5641 442.88 26.5641C440.49 26.5641 438.773 27.7869 438.773 29.5716C438.773 31.0588 439.783 31.9511 442.005 32.4799L444.664 33.1078C447.627 33.8349 449.108 35.3552 449.108 37.6686C449.108 40.61 446.449 42.7252 442.543 42.7252C439.076 42.7252 436.753 41.1388 436.113 38.2635L438.066 37.8008C438.571 39.8499 440.052 40.9405 442.476 40.9405C445.203 40.9405 446.954 39.5855 446.954 37.8008C446.954 36.4128 446.011 35.4213 444.092 34.9916L441.197 34.2976C438.133 33.5705 436.686 31.9842 436.686 29.6707C436.686 26.8285 439.278 24.8125 442.846 24.8125C446.078 24.8125 447.964 26.3328 448.839 28.8445L446.954 29.3733L446.987 29.3402Z" fill="#0C193A"/>
</svg>
