<svg viewBox="0 0 65 51" fill="none" xmlns="http://www.w3.org/2000/svg">
    <path d="M16.4232 50.522C11.6352 48.47 7.98722 45.791 5.47922 42.485C3.08522 39.179 1.66022 35.36 1.20422 31.028C0.634221 26.354 1.54622 21.908 3.94022 17.69C6.44822 13.472 9.81122 9.881 14.0292 6.91699C18.2472 3.95299 22.8072 1.78699 27.7092 0.418996L28.2222 1.44499C24.1182 3.95299 20.9262 6.974 18.6462 10.508C16.3662 13.928 15.4542 17.405 15.9102 20.939C16.2522 24.131 17.5062 26.924 19.6722 29.318C21.9522 31.712 25.6002 34.22 30.6162 36.842L16.4232 50.522ZM50.6232 50.522C45.8352 48.47 42.1872 45.791 39.6792 42.485C37.2852 39.179 35.8602 35.36 35.4042 31.028C34.8342 26.354 35.7462 21.908 38.1402 17.69C40.6482 13.472 44.0112 9.881 48.2292 6.91699C52.4472 3.95299 57.0072 1.78699 61.9092 0.418996L62.4222 1.44499C58.3182 3.95299 55.1262 6.974 52.8462 10.508C50.5662 13.928 49.6542 17.405 50.1102 20.939C50.4522 24.131 51.7062 26.924 53.8722 29.318C56.1522 31.712 59.8002 34.22 64.8162 36.842L50.6232 50.522Z" fill="#FDF1B7"/>
</svg>
