<svg xmlns="http://www.w3.org/2000/svg" viewBox="0 0 15 13" fill="none">
    <path d="M6.91086 12.374C7.39498 12.374 7.85966 12.1822 8.20183 11.84L11.8402 8.2016C12.1824 7.85942 12.3749 7.39474 12.3749 6.91064C12.3749 6.42653 12.1824 5.9625 11.8402 5.61967L6.75344 0.534898C6.39571 0.178459 5.90769 -0.0146747 5.40285 0.000870916L0.947867 0.14669H0.948515C0.50977 0.159651 0.157214 0.511556 0.143593 0.949654L0.00101401 5.40463C-0.0158357 5.90885 0.177939 6.39814 0.535041 6.75523L5.61865 11.84C5.96148 12.1828 6.42609 12.3747 6.91086 12.374ZM4.39104 6.12456C3.68851 6.1278 3.05404 5.7072 2.78315 5.05976C2.51225 4.41168 2.65872 3.66443 3.1545 3.1674C3.64964 2.66968 4.39623 2.51998 5.04503 2.78827C5.69377 3.05722 6.11695 3.6904 6.1163 4.39227C6.11436 5.3456 5.34365 6.11875 4.39104 6.12456Z" fill="white"/>
    <path d="M9.50097 0.827099C9.3046 0.644334 8.99937 0.649527 8.80947 0.838765C8.62023 1.02865 8.61504 1.3339 8.7978 1.53027L13.1224 5.85551C13.403 6.13548 13.5605 6.51526 13.5605 6.91124C13.5605 7.30786 13.403 7.68764 13.1224 7.96761L10.0634 11.0271C9.90133 11.2241 9.91494 11.5113 10.0945 11.6927C10.274 11.8742 10.5611 11.8904 10.76 11.7303L13.826 8.67592C14.2926 8.2093 14.5545 7.57613 14.5545 6.91646C14.5545 6.2567 14.2926 5.62353 13.826 5.157L9.50097 0.827099Z" fill="white"/>
</svg>