<svg viewBox="0 0 85 16" fill="none" xmlns="http://www.w3.org/2000/svg">
<path d="M4.47568 15L0.646699 1.61818H3.73732L5.95238 10.9162H6.06346L8.50721 1.61818H11.1535L13.5907 10.9358H13.7083L15.9234 1.61818H19.014L15.1851 15H12.4277L9.87937 6.25085H9.77482L7.23306 15H4.47568ZM23.9718 15.196C22.9394 15.196 22.0507 14.9869 21.3059 14.5688C20.5653 14.1462 19.9947 13.5494 19.5939 12.7784C19.1932 12.003 18.9928 11.0861 18.9928 10.0276C18.9928 8.99517 19.1932 8.08911 19.5939 7.30938C19.9947 6.52964 20.5588 5.92197 21.2863 5.48636C22.0181 5.05076 22.8762 4.83295 23.8607 4.83295C24.5228 4.83295 25.1392 4.93968 25.7098 5.15313C26.2848 5.36222 26.7858 5.67803 27.2127 6.10057C27.6439 6.52311 27.9793 7.05455 28.2189 7.69489C28.4585 8.33087 28.5783 9.07576 28.5783 9.92955V10.694H20.1036V8.96903H25.9581C25.9581 8.56828 25.871 8.21326 25.6968 7.90398C25.5225 7.5947 25.2808 7.35294 24.9715 7.17869C24.6666 7.00009 24.3115 6.9108 23.9064 6.9108C23.4839 6.9108 23.1093 7.00881 22.7826 7.20483C22.4602 7.3965 22.2076 7.65568 22.0246 7.98239C21.8417 8.30473 21.748 8.66411 21.7436 9.06051V10.7006C21.7436 11.1972 21.8351 11.6262 22.0181 11.9878C22.2054 12.3493 22.4689 12.6281 22.8087 12.8241C23.1485 13.0202 23.5514 13.1182 24.0175 13.1182C24.3268 13.1182 24.6099 13.0746 24.8669 12.9875C25.1239 12.9004 25.3439 12.7697 25.5269 12.5955C25.7098 12.4212 25.8492 12.2078 25.9451 11.9551L28.5195 12.125C28.3888 12.7436 28.1209 13.2837 27.7158 13.7455C27.315 14.2028 26.7967 14.56 26.1607 14.817C25.5291 15.0697 24.7994 15.196 23.9718 15.196ZM30.4471 15V1.61818H33.2306V6.64943H33.3155C33.4375 6.37936 33.6139 6.10492 33.8448 5.82614C34.08 5.54299 34.3849 5.30777 34.7596 5.12045C35.1385 4.92879 35.609 4.83295 36.1709 4.83295C36.9027 4.83295 37.5779 5.02462 38.1965 5.40795C38.815 5.78693 39.3095 6.35975 39.6797 7.12642C40.05 7.88873 40.2351 8.84489 40.2351 9.99489C40.2351 11.1144 40.0543 12.0597 39.6928 12.8307C39.3356 13.5973 38.8477 14.1789 38.2292 14.5753C37.615 14.9673 36.9267 15.1634 36.1644 15.1634C35.6242 15.1634 35.1647 15.0741 34.7857 14.8955C34.4111 14.7169 34.104 14.4925 33.8644 14.2224C33.6248 13.948 33.4418 13.6714 33.3155 13.3926H33.1914V15H30.4471ZM33.1718 9.98182C33.1718 10.5786 33.2545 11.0991 33.4201 11.5435C33.5856 11.9878 33.8252 12.3341 34.1388 12.5824C34.4525 12.8263 34.8336 12.9483 35.2823 12.9483C35.7353 12.9483 36.1186 12.8241 36.4323 12.5759C36.7459 12.3232 36.9833 11.9747 37.1445 11.5304C37.31 11.0817 37.3928 10.5655 37.3928 9.98182C37.3928 9.40246 37.3122 8.8928 37.151 8.45284C36.9899 8.01288 36.7525 7.66875 36.4388 7.42045C36.1252 7.17216 35.7397 7.04801 35.2823 7.04801C34.8293 7.04801 34.4459 7.1678 34.1323 7.40739C33.823 7.64697 33.5856 7.98674 33.4201 8.4267C33.2545 8.86667 33.1718 9.38504 33.1718 9.98182ZM50.443 7.82557L47.8947 7.98239C47.8512 7.76458 47.7575 7.56856 47.6137 7.39432C47.47 7.21572 47.2805 7.07415 47.0453 6.9696C46.8144 6.8607 46.5378 6.80625 46.2155 6.80625C45.7842 6.80625 45.4205 6.89773 45.1243 7.08068C44.828 7.25928 44.6799 7.49886 44.6799 7.79943C44.6799 8.03901 44.7758 8.24157 44.9674 8.4071C45.1591 8.57263 45.488 8.70549 45.9541 8.80568L47.7706 9.17159C48.7463 9.37197 49.4738 9.69432 49.953 10.1386C50.4321 10.583 50.6717 11.1667 50.6717 11.8898C50.6717 12.5475 50.4779 13.1247 50.0902 13.6213C49.7068 14.1179 49.1798 14.5056 48.5089 14.7844C47.8424 15.0588 47.0736 15.196 46.2024 15.196C44.8738 15.196 43.8153 14.9194 43.0268 14.3662C42.2427 13.8086 41.7832 13.0507 41.6481 12.0923L44.3859 11.9486C44.4687 12.3537 44.669 12.663 44.987 12.8764C45.305 13.0855 45.7123 13.1901 46.2089 13.1901C46.6968 13.1901 47.0888 13.0964 47.3851 12.9091C47.6856 12.7174 47.8381 12.4713 47.8424 12.1707C47.8381 11.9181 47.7314 11.7112 47.5223 11.55C47.3132 11.3845 46.9908 11.2581 46.5552 11.171L44.8172 10.8247C43.837 10.6287 43.1074 10.2889 42.6282 9.8054C42.1534 9.32187 41.916 8.70549 41.916 7.95625C41.916 7.31155 42.0903 6.75616 42.4387 6.29006C42.7916 5.82396 43.286 5.46458 43.922 5.21193C44.5623 4.95928 45.3116 4.83295 46.1697 4.83295C47.4373 4.83295 48.4349 5.10085 49.1623 5.63665C49.8941 6.17244 50.321 6.90208 50.443 7.82557ZM52.4245 15V4.96364H55.208V15H52.4245ZM53.8228 3.66989C53.4089 3.66989 53.0539 3.53267 52.7577 3.25824C52.4659 2.97945 52.3199 2.64621 52.3199 2.25852C52.3199 1.87519 52.4659 1.54631 52.7577 1.27188C53.0539 0.993087 53.4089 0.853693 53.8228 0.853693C54.2366 0.853693 54.5894 0.993087 54.8813 1.27188C55.1775 1.54631 55.3256 1.87519 55.3256 2.25852C55.3256 2.64621 55.1775 2.97945 54.8813 3.25824C54.5894 3.53267 54.2366 3.66989 53.8228 3.66989ZM62.7761 4.96364V7.05455H56.7321V4.96364H62.7761ZM58.1042 2.55909H60.8877V11.9159C60.8877 12.1729 60.927 12.3733 61.0054 12.517C61.0838 12.6564 61.1927 12.7545 61.3321 12.8111C61.4758 12.8677 61.6413 12.896 61.8287 12.896C61.9593 12.896 62.09 12.8851 62.2207 12.8634C62.3514 12.8372 62.4516 12.8176 62.5213 12.8045L62.9591 14.8759C62.8197 14.9194 62.6236 14.9695 62.371 15.0261C62.1183 15.0871 61.8112 15.1241 61.4497 15.1372C60.7788 15.1634 60.1908 15.0741 59.6855 14.8693C59.1845 14.6646 58.7947 14.3466 58.5159 13.9153C58.2371 13.4841 58.0999 12.9396 58.1042 12.2818V2.55909ZM69.0554 15.196C68.023 15.196 67.1343 14.9869 66.3895 14.5688C65.6489 14.1462 65.0783 13.5494 64.6775 12.7784C64.2768 12.003 64.0764 11.0861 64.0764 10.0276C64.0764 8.99517 64.2768 8.08911 64.6775 7.30938C65.0783 6.52964 65.6424 5.92197 66.3699 5.48636C67.1017 5.05076 67.9598 4.83295 68.9443 4.83295C69.6064 4.83295 70.2228 4.93968 70.7934 5.15313C71.3684 5.36222 71.8694 5.67803 72.2963 6.10057C72.7275 6.52311 73.0629 7.05455 73.3025 7.69489C73.5421 8.33087 73.6619 9.07576 73.6619 9.92955V10.694H65.1872V8.96903H71.0417C71.0417 8.56828 70.9546 8.21326 70.7804 7.90398C70.6061 7.5947 70.3644 7.35294 70.0551 7.17869C69.7502 7.00009 69.3951 6.9108 68.99 6.9108C68.5675 6.9108 68.1929 7.00881 67.8662 7.20483C67.5438 7.3965 67.2912 7.65568 67.1082 7.98239C66.9253 8.30473 66.8316 8.66411 66.8272 9.06051V10.7006C66.8272 11.1972 66.9187 11.6262 67.1017 11.9878C67.289 12.3493 67.5525 12.6281 67.8923 12.8241C68.2321 13.0202 68.635 13.1182 69.1011 13.1182C69.4104 13.1182 69.6935 13.0746 69.9505 12.9875C70.2075 12.9004 70.4275 12.7697 70.6105 12.5955C70.7934 12.4212 70.9328 12.2078 71.0287 11.9551L73.6031 12.125C73.4724 12.7436 73.2045 13.2837 72.7994 13.7455C72.3986 14.2028 71.8803 14.56 71.2443 14.817C70.6127 15.0697 69.883 15.196 69.0554 15.196ZM83.8289 7.82557L81.2806 7.98239C81.2371 7.76458 81.1434 7.56856 80.9997 7.39432C80.8559 7.21572 80.6664 7.07415 80.4312 6.9696C80.2003 6.8607 79.9237 6.80625 79.6014 6.80625C79.1701 6.80625 78.8064 6.89773 78.5102 7.08068C78.214 7.25928 78.0659 7.49886 78.0659 7.79943C78.0659 8.03901 78.1617 8.24157 78.3534 8.4071C78.545 8.57263 78.8739 8.70549 79.34 8.80568L81.1565 9.17159C82.1323 9.37197 82.8597 9.69432 83.3389 10.1386C83.8181 10.583 84.0576 11.1667 84.0576 11.8898C84.0576 12.5475 83.8638 13.1247 83.4761 13.6213C83.0928 14.1179 82.5657 14.5056 81.8948 14.7844C81.2284 15.0588 80.4595 15.196 79.5883 15.196C78.2597 15.196 77.2012 14.9194 76.4127 14.3662C75.6287 13.8086 75.1691 13.0507 75.0341 12.0923L77.7718 11.9486C77.8546 12.3537 78.055 12.663 78.373 12.8764C78.691 13.0855 79.0983 13.1901 79.5948 13.1901C80.0827 13.1901 80.4748 13.0964 80.771 12.9091C81.0716 12.7174 81.224 12.4713 81.2284 12.1707C81.224 11.9181 81.1173 11.7112 80.9082 11.55C80.6991 11.3845 80.3768 11.2581 79.9412 11.171L78.2031 10.8247C77.223 10.6287 76.4933 10.2889 76.0142 9.8054C75.5394 9.32187 75.302 8.70549 75.302 7.95625C75.302 7.31155 75.4762 6.75616 75.8247 6.29006C76.1775 5.82396 76.6719 5.46458 77.3079 5.21193C77.9483 4.95928 78.6975 4.83295 79.5556 4.83295C80.8233 4.83295 81.8208 5.10085 82.5483 5.63665C83.2801 6.17244 83.707 6.90208 83.8289 7.82557Z" fill="#0C193A"/>
</svg>
