<svg xmlns="http://www.w3.org/2000/svg"  viewBox="0 0 64 51" fill="none">
    <path d="M15.3834 50.103C10.5954 48.051 6.94742 45.372 4.43942 42.066C2.04542 38.76 0.620423 34.941 0.164423 30.609C-0.405577 25.935 0.506423 21.489 2.90042 17.271C5.40842 13.053 8.77142 9.462 12.9894 6.498C17.2074 3.534 21.7674 1.368 26.6694 0L27.1824 1.026C23.0784 3.534 19.8864 6.555 17.6064 10.089C15.3264 13.509 14.4144 16.986 14.8704 20.52C15.2124 23.712 16.4664 26.505 18.6324 28.899C20.9124 31.293 24.5604 33.801 29.5764 36.423L15.3834 50.103ZM49.5834 50.103C44.7954 48.051 41.1474 45.372 38.6394 42.066C36.2454 38.76 34.8204 34.941 34.3644 30.609C33.7944 25.935 34.7064 21.489 37.1004 17.271C39.6084 13.053 42.9714 9.462 47.1894 6.498C51.4074 3.534 55.9674 1.368 60.8694 0L61.3824 1.026C57.2784 3.534 54.0864 6.555 51.8064 10.089C49.5264 13.509 48.6144 16.986 49.0704 20.52C49.4124 23.712 50.6664 26.505 52.8324 28.899C55.1124 31.293 58.7604 33.801 63.7764 36.423L49.5834 50.103Z" fill="#A4E1FF"/>
</svg>